fontra-icons.ufo
<glyph name="_cursor-rotate-hotspot-0-0" format="2">
  <advance width="1000"/>
  <anchor x="0" y="0" name="hotspot"/>
  <outline>
    <contour>
      <point x="282" y="-163" type="line"/>
      <point x="191" y="-163" type="line"/>
      <point x="195" y="-61"/>
      <point x="161" y="33"/>
      <point x="97" y="97" type="curve" smooth="yes"/>
      <point x="34" y="159"/>
      <point x="-58" y="190"/>
      <point x="-158" y="186" type="curve"/>
      <point x="-158" y="277" type="line"/>
      <point x="-282" y="153" type="line"/>
      <point x="-158" y="29" type="line"/>
      <point x="-158" y="120" type="line"/>
      <point x="-76" y="124"/>
      <point x="0" y="100"/>
      <point x="50" y="50" type="curve" smooth="yes"/>
      <point x="103" y="-1"/>
      <point x="129" y="-79"/>
      <point x="125" y="-163" type="curve"/>
      <point x="34" y="-163" type="line"/>
      <point x="158" y="-287" type="line"/>
    </contour>
  </outline>
</glyph>
<glyph name="_cursor-rotate-temp" format="2">
  <advance width="1000"/>
  <guideline x="557" y="660" angle="0"/>
  <guideline x="570" y="-60" angle="0"/>
  <guideline x="398" y="572" angle="315"/>
  <guideline x="398" y="374" angle="45"/>
  <guideline x="348" y="373" angle="315"/>
  <guideline x="347" y="573" angle="45"/>
  <outline>
    <contour>
      <point x="720" y="199" type="line"/>
      <point x="720" y="380"/>
      <point x="591" y="509"/>
      <point x="410" y="509" type="curve"/>
      <point x="340" y="509" type="line"/>
      <point x="340" y="443" type="line"/>
      <point x="410" y="443" type="line"/>
      <point x="555" y="443"/>
      <point x="654" y="344"/>
      <point x="654" y="199" type="curve"/>
      <point x="654" y="139" type="line"/>
      <point x="720" y="139" type="line"/>
    </contour>
    <contour>
      <point x="248" y="473" type="line"/>
      <point x="373" y="348" type="line"/>
      <point x="372" y="598" type="line"/>
    </contour>
    <contour>
      <point x="687" y="48" type="line"/>
      <point x="812" y="173" type="line"/>
      <point x="563" y="173" type="line"/>
    </contour>
  </outline>
</glyph>
<glyph name="_geartooth" format="2">
  <advance width="500"/>
  <outline>
    <contour>
      <point x="78" y="361" type="line" smooth="yes"/>
      <point x="77" y="378"/>
      <point x="67" y="389"/>
      <point x="50" y="391" type="curve" smooth="yes"/>
      <point x="14" y="395"/>
      <point x="-14" y="395"/>
      <point x="-50" y="391" type="curve" smooth="yes"/>
      <point x="-67" y="389"/>
      <point x="-77" y="378"/>
      <point x="-78" y="361" type="curve" smooth="yes"/>
      <point x="-83" y="291" type="line"/>
      <point x="83" y="291" type="line"/>
    </contour>
  </outline>
</glyph>
<glyph name="aligncenter" format="2">
  <advance width="1000"/>
  <outline>
    <contour>
      <point x="851.0" y="561" type="line" smooth="yes"/>
      <point x="873.0" y="561"/>
      <point x="890.0" y="578"/>
      <point x="890.0" y="600" type="curve" smooth="yes"/>
      <point x="890.0" y="622"/>
      <point x="873.0" y="639"/>
      <point x="851.0" y="639" type="curve" smooth="yes"/>
      <point x="149.0" y="639" type="line" smooth="yes"/>
      <point x="127.0" y="639"/>
      <point x="110.0" y="622"/>
      <point x="110.0" y="600" type="curve" smooth="yes"/>
      <point x="110.0" y="578"/>
      <point x="127.0" y="561"/>
      <point x="149.0" y="561" type="curve" smooth="yes"/>
    </contour>
    <contour>
      <point x="711" y="361" type="line" smooth="yes"/>
      <point x="733" y="361"/>
      <point x="750" y="378"/>
      <point x="750" y="400" type="curve" smooth="yes"/>
      <point x="750" y="422"/>
      <point x="733" y="439"/>
      <point x="711" y="439" type="curve" smooth="yes"/>
      <point x="289" y="439" type="line" smooth="yes"/>
      <point x="267" y="439"/>
      <point x="250" y="422"/>
      <point x="250" y="400" type="curve" smooth="yes"/>
      <point x="250" y="378"/>
      <point x="267" y="361"/>
      <point x="289" y="361" type="curve" smooth="yes"/>
    </contour>
    <contour>
      <point x="851.0" y="161" type="line" smooth="yes"/>
      <point x="873.0" y="161"/>
      <point x="890.0" y="178"/>
      <point x="890.0" y="200" type="curve" smooth="yes"/>
      <point x="890.0" y="222"/>
      <point x="873.0" y="239"/>
      <point x="851.0" y="239" type="curve" smooth="yes"/>
      <point x="149.0" y="239" type="line" smooth="yes"/>
      <point x="127.0" y="239"/>
      <point x="110.0" y="222"/>
      <point x="110.0" y="200" type="curve" smooth="yes"/>
      <point x="110.0" y="178"/>
      <point x="127.0" y="161"/>
      <point x="149.0" y="161" type="curve" smooth="yes"/>
    </contour>
    <contour>
      <point x="711" y="-39" type="line" smooth="yes"/>
      <point x="733" y="-39"/>
      <point x="750" y="-22"/>
      <point x="750" y="0" type="curve" smooth="yes"/>
      <point x="750" y="22"/>
      <point x="733" y="39"/>
      <point x="711" y="39" type="curve" smooth="yes"/>
      <point x="289" y="39" type="line" smooth="yes"/>
      <point x="267" y="39"/>
      <point x="250" y="22"/>
      <point x="250" y="0" type="curve" smooth="yes"/>
      <point x="250" y="-22"/>
      <point x="267" y="-39"/>
      <point x="289" y="-39" type="curve" smooth="yes"/>
    </contour>
  </outline>
</glyph>
<glyph name="alignleft" format="2">
  <advance width="1000"/>
  <outline>
    <contour>
      <point x="851" y="561" type="line" smooth="yes"/>
      <point x="873" y="561"/>
      <point x="890" y="578"/>
      <point x="890" y="600" type="curve" smooth="yes"/>
      <point x="890" y="622"/>
      <point x="873" y="639"/>
      <point x="851" y="639" type="curve" smooth="yes"/>
      <point x="149" y="639" type="line" smooth="yes"/>
      <point x="127" y="639"/>
      <point x="110" y="622"/>
      <point x="110" y="600" type="curve" smooth="yes"/>
      <point x="110" y="578"/>
      <point x="127" y="561"/>
      <point x="149" y="561" type="curve" smooth="yes"/>
    </contour>
    <contour>
      <point x="651" y="361" type="line" smooth="yes"/>
      <point x="673" y="361"/>
      <point x="690" y="378"/>
      <point x="690" y="400" type="curve" smooth="yes"/>
      <point x="690" y="422"/>
      <point x="673" y="439"/>
      <point x="651" y="439" type="curve" smooth="yes"/>
      <point x="149" y="439" type="line" smooth="yes"/>
      <point x="127" y="439"/>
      <point x="110" y="422"/>
      <point x="110" y="400" type="curve" smooth="yes"/>
      <point x="110" y="378"/>
      <point x="127" y="361"/>
      <point x="149" y="361" type="curve" smooth="yes"/>
    </contour>
    <contour>
      <point x="851" y="161" type="line" smooth="yes"/>
      <point x="873" y="161"/>
      <point x="890" y="178"/>
      <point x="890" y="200" type="curve" smooth="yes"/>
      <point x="890" y="222"/>
      <point x="873" y="239"/>
      <point x="851" y="239" type="curve" smooth="yes"/>
      <point x="149" y="239" type="line" smooth="yes"/>
      <point x="127" y="239"/>
      <point x="110" y="222"/>
      <point x="110" y="200" type="curve" smooth="yes"/>
      <point x="110" y="178"/>
      <point x="127" y="161"/>
      <point x="149" y="161" type="curve" smooth="yes"/>
    </contour>
    <contour>
      <point x="651" y="-39" type="line" smooth="yes"/>
      <point x="673" y="-39"/>
      <point x="690" y="-22"/>
      <point x="690" y="0" type="curve" smooth="yes"/>
      <point x="690" y="22"/>
      <point x="673" y="39"/>
      <point x="651" y="39" type="curve" smooth="yes"/>
      <point x="149" y="39" type="line" smooth="yes"/>
      <point x="127" y="39"/>
      <point x="110" y="22"/>
      <point x="110" y="0" type="curve" smooth="yes"/>
      <point x="110" y="-22"/>
      <point x="127" y="-39"/>
      <point x="149" y="-39" type="curve" smooth="yes"/>
    </contour>
  </outline>
</glyph>
<glyph name="alignright" format="2">
  <advance width="1000"/>
  <outline>
    <contour>
      <point x="851" y="561" type="line" smooth="yes"/>
      <point x="873" y="561"/>
      <point x="890" y="578"/>
      <point x="890" y="600" type="curve" smooth="yes"/>
      <point x="890" y="622"/>
      <point x="873" y="639"/>
      <point x="851" y="639" type="curve" smooth="yes"/>
      <point x="149" y="639" type="line" smooth="yes"/>
      <point x="127" y="639"/>
      <point x="110" y="622"/>
      <point x="110" y="600" type="curve" smooth="yes"/>
      <point x="110" y="578"/>
      <point x="127" y="561"/>
      <point x="149" y="561" type="curve" smooth="yes"/>
    </contour>
    <contour>
      <point x="851" y="361" type="line" smooth="yes"/>
      <point x="873" y="361"/>
      <point x="890" y="378"/>
      <point x="890" y="400" type="curve" smooth="yes"/>
      <point x="890" y="422"/>
      <point x="873" y="439"/>
      <point x="851" y="439" type="curve" smooth="yes"/>
      <point x="349" y="439" type="line" smooth="yes"/>
      <point x="327" y="439"/>
      <point x="310" y="422"/>
      <point x="310" y="400" type="curve" smooth="yes"/>
      <point x="310" y="378"/>
      <point x="327" y="361"/>
      <point x="349" y="361" type="curve" smooth="yes"/>
    </contour>
    <contour>
      <point x="851" y="161" type="line" smooth="yes"/>
      <point x="873" y="161"/>
      <point x="890" y="178"/>
      <point x="890" y="200" type="curve" smooth="yes"/>
      <point x="890" y="222"/>
      <point x="873" y="239"/>
      <point x="851" y="239" type="curve" smooth="yes"/>
      <point x="149" y="239" type="line" smooth="yes"/>
      <point x="127" y="239"/>
      <point x="110" y="222"/>
      <point x="110" y="200" type="curve" smooth="yes"/>
      <point x="110" y="178"/>
      <point x="127" y="161"/>
      <point x="149" y="161" type="curve" smooth="yes"/>
    </contour>
    <contour>
      <point x="851" y="-39" type="line" smooth="yes"/>
      <point x="873" y="-39"/>
      <point x="890" y="-22"/>
      <point x="890" y="0" type="curve" smooth="yes"/>
      <point x="890" y="22"/>
      <point x="873" y="39"/>
      <point x="851" y="39" type="curve" smooth="yes"/>
      <point x="349" y="39" type="line" smooth="yes"/>
      <point x="327" y="39"/>
      <point x="310" y="22"/>
      <point x="310" y="0" type="curve" smooth="yes"/>
      <point x="310" y="-22"/>
      <point x="327" y="-39"/>
      <point x="349" y="-39" type="curve" smooth="yes"/>
    </contour>
  </outline>
</glyph>
<glyph name="bullseye" format="2">
  <advance width="1000"/>
  <outline>
    <contour>
      <point x="500" y="-149" type="curve" smooth="yes"/>
      <point x="517" y="-149"/>
      <point x="530" y="-135"/>
      <point x="530" y="-119" type="curve" smooth="yes"/>
      <point x="530" y="-14" type="line"/>
      <point x="601" y="-7"/>
      <point x="669" y="24"/>
      <point x="723" y="77" type="curve"/>
      <point x="777" y="131"/>
      <point x="807" y="199"/>
      <point x="814" y="270" type="curve"/>
      <point x="919" y="270" type="line" smooth="yes"/>
      <point x="935" y="270"/>
      <point x="949" y="283"/>
      <point x="949" y="300" type="curve" smooth="yes"/>
      <point x="949" y="317"/>
      <point x="936" y="330"/>
      <point x="919" y="330" type="curve" smooth="yes"/>
      <point x="814" y="330" type="line"/>
      <point x="807" y="401"/>
      <point x="777" y="469"/>
      <point x="723" y="523" type="curve" smooth="yes"/>
      <point x="669" y="577"/>
      <point x="600" y="607"/>
      <point x="530" y="614" type="curve"/>
      <point x="530" y="719" type="line" smooth="yes"/>
      <point x="530" y="736"/>
      <point x="517" y="749"/>
      <point x="500" y="749" type="curve" smooth="yes"/>
      <point x="483" y="749"/>
      <point x="470" y="736"/>
      <point x="470" y="719" type="curve" smooth="yes"/>
      <point x="470" y="614" type="line"/>
      <point x="400" y="607"/>
      <point x="331" y="577"/>
      <point x="277" y="523" type="curve" smooth="yes"/>
      <point x="223" y="469"/>
      <point x="193" y="401"/>
      <point x="186" y="330" type="curve"/>
      <point x="81" y="330" type="line" smooth="yes"/>
      <point x="64" y="330"/>
      <point x="51" y="317"/>
      <point x="51" y="300" type="curve" smooth="yes"/>
      <point x="51" y="283"/>
      <point x="64" y="270"/>
      <point x="81" y="270" type="curve" smooth="yes"/>
      <point x="186" y="270" type="line"/>
      <point x="193" y="199"/>
      <point x="223" y="131"/>
      <point x="277" y="77" type="curve" smooth="yes"/>
      <point x="331" y="24"/>
      <point x="399" y="-7"/>
      <point x="470" y="-14" type="curve"/>
      <point x="470" y="-119" type="line" smooth="yes"/>
      <point x="470" y="-136"/>
      <point x="483" y="-149"/>
    </contour>
    <contour>
      <point x="688" y="300" type="curve" smooth="yes"/>
      <point x="688" y="403"/>
      <point x="603" y="488"/>
      <point x="500" y="488" type="curve" smooth="yes"/>
      <point x="397" y="488"/>
      <point x="312" y="403"/>
      <point x="312" y="300" type="curve" smooth="yes"/>
      <point x="312" y="197"/>
      <point x="397" y="112"/>
      <point x="500" y="112" type="curve" smooth="yes"/>
      <point x="603" y="112"/>
      <point x="688" y="197"/>
    </contour>
    <contour>
      <point x="500" y="555" type="curve" smooth="yes"/>
      <point x="565" y="555"/>
      <point x="631" y="530"/>
      <point x="680" y="480" type="curve" smooth="yes"/>
      <point x="780" y="381"/>
      <point x="780" y="219"/>
      <point x="680" y="120" type="curve" smooth="yes"/>
      <point x="631" y="70"/>
      <point x="565" y="45"/>
      <point x="500" y="45" type="curve" smooth="yes"/>
      <point x="435" y="45"/>
      <point x="370" y="70"/>
      <point x="320" y="120" type="curve" smooth="yes"/>
      <point x="220" y="219"/>
      <point x="220" y="381"/>
      <point x="320" y="480" type="curve" smooth="yes"/>
      <point x="369" y="530"/>
      <point x="435" y="555"/>
    </contour>
  </outline>
</glyph>
<glyph name="cursor-rotate-top-right" format="2">
  <advance width="1000"/>
  <guideline x="557" y="660" angle="0"/>
  <guideline x="570" y="-60" angle="0"/>
  <outline>
    <contour>
      <point x="812" y="173" type="line"/>
      <point x="720" y="173" type="line"/>
      <point x="720" y="199" type="line"/>
      <point x="720" y="380"/>
      <point x="591" y="509"/>
      <point x="410" y="509" type="curve"/>
      <point x="373" y="509" type="line"/>
      <point x="373" y="598" type="line"/>
      <point x="248" y="473" type="line"/>
      <point x="373" y="348" type="line"/>
      <point x="373" y="443" type="line"/>
      <point x="410" y="443" type="line"/>
      <point x="555" y="443"/>
      <point x="654" y="344"/>
      <point x="654" y="199" type="curve"/>
      <point x="654" y="173" type="line"/>
      <point x="563" y="173" type="line"/>
      <point x="687" y="48" type="line"/>
    </contour>
  </outline>
</glyph>
<glyph name="gear" format="2">
  <advance width="1000"/>
  <outline>
    <contour>
      <point x="190" y="100" type="line" smooth="yes"/>
      <point x="178" y="87"/>
      <point x="178" y="72"/>
      <point x="188" y="59" type="curve" smooth="yes"/>
      <point x="211" y="31"/>
      <point x="231" y="11"/>
      <point x="259" y="-12" type="curve" smooth="yes"/>
      <point x="272" y="-22"/>
      <point x="287" y="-22"/>
      <point x="300" y="-10" type="curve" smooth="yes"/>
      <point x="348" y="31" type="line"/>
      <point x="370" y="19"/>
      <point x="393" y="9"/>
      <point x="417" y="2" type="curve"/>
      <point x="422" y="-61" type="line" smooth="yes"/>
      <point x="423" y="-78"/>
      <point x="433" y="-89"/>
      <point x="450" y="-91" type="curve" smooth="yes"/>
      <point x="486" y="-95"/>
      <point x="514" y="-95"/>
      <point x="550" y="-91" type="curve" smooth="yes"/>
      <point x="567" y="-89"/>
      <point x="577" y="-78"/>
      <point x="578" y="-61" type="curve" smooth="yes"/>
      <point x="583" y="2" type="line"/>
      <point x="607" y="9"/>
      <point x="630" y="19"/>
      <point x="652" y="31" type="curve"/>
      <point x="700" y="-10" type="line" smooth="yes"/>
      <point x="713" y="-22"/>
      <point x="728" y="-22"/>
      <point x="741" y="-12" type="curve" smooth="yes"/>
      <point x="769" y="11"/>
      <point x="789" y="31"/>
      <point x="812" y="59" type="curve" smooth="yes"/>
      <point x="822" y="72"/>
      <point x="822" y="87"/>
      <point x="810" y="100" type="curve" smooth="yes"/>
      <point x="769" y="147" type="line"/>
      <point x="782" y="170"/>
      <point x="791" y="193"/>
      <point x="798" y="217" type="curve"/>
      <point x="861" y="222" type="line" smooth="yes"/>
      <point x="878" y="223"/>
      <point x="889" y="233"/>
      <point x="891" y="250" type="curve" smooth="yes"/>
      <point x="895" y="286"/>
      <point x="895" y="314"/>
      <point x="891" y="350" type="curve" smooth="yes"/>
      <point x="889" y="367"/>
      <point x="878" y="377"/>
      <point x="861" y="378" type="curve" smooth="yes"/>
      <point x="798" y="383" type="line"/>
      <point x="791" y="407"/>
      <point x="782" y="430"/>
      <point x="769" y="453" type="curve"/>
      <point x="810" y="500" type="line" smooth="yes"/>
      <point x="822" y="513"/>
      <point x="822" y="528"/>
      <point x="812" y="541" type="curve" smooth="yes"/>
      <point x="789" y="569"/>
      <point x="769" y="589"/>
      <point x="741" y="612" type="curve" smooth="yes"/>
      <point x="728" y="622"/>
      <point x="713" y="622"/>
      <point x="700" y="610" type="curve" smooth="yes"/>
      <point x="653" y="569" type="line"/>
      <point x="630" y="581"/>
      <point x="607" y="591"/>
      <point x="583" y="598" type="curve"/>
      <point x="578" y="661" type="line" smooth="yes"/>
      <point x="577" y="678"/>
      <point x="567" y="689"/>
      <point x="550" y="691" type="curve" smooth="yes"/>
      <point x="514" y="695"/>
      <point x="486" y="695"/>
      <point x="450" y="691" type="curve" smooth="yes"/>
      <point x="433" y="689"/>
      <point x="423" y="678"/>
      <point x="422" y="661" type="curve" smooth="yes"/>
      <point x="417" y="598" type="line"/>
      <point x="393" y="591"/>
      <point x="370" y="581"/>
      <point x="347" y="569" type="curve"/>
      <point x="300" y="610" type="line" smooth="yes"/>
      <point x="287" y="622"/>
      <point x="272" y="622"/>
      <point x="259" y="612" type="curve" smooth="yes"/>
      <point x="231" y="589"/>
      <point x="211" y="569"/>
      <point x="188" y="541" type="curve" smooth="yes"/>
      <point x="178" y="528"/>
      <point x="178" y="513"/>
      <point x="190" y="500" type="curve" smooth="yes"/>
      <point x="231" y="453" type="line"/>
      <point x="218" y="430"/>
      <point x="209" y="407"/>
      <point x="202" y="383" type="curve"/>
      <point x="139" y="378" type="line" smooth="yes"/>
      <point x="122" y="377"/>
      <point x="111" y="367"/>
      <point x="109" y="350" type="curve" smooth="yes"/>
      <point x="105" y="314"/>
      <point x="105" y="286"/>
      <point x="109" y="250" type="curve" smooth="yes"/>
      <point x="111" y="233"/>
      <point x="122" y="223"/>
      <point x="139" y="222" type="curve" smooth="yes"/>
      <point x="202" y="217" type="line"/>
      <point x="209" y="193"/>
      <point x="218" y="170"/>
      <point x="231" y="147" type="curve"/>
    </contour>
    <contour>
      <point x="500" y="503" type="curve" smooth="yes"/>
      <point x="552" y="503"/>
      <point x="604" y="483"/>
      <point x="643" y="443" type="curve" smooth="yes"/>
      <point x="722" y="365"/>
      <point x="722" y="235"/>
      <point x="643" y="157" type="curve" smooth="yes"/>
      <point x="604" y="117"/>
      <point x="552" y="98"/>
      <point x="500" y="98" type="curve" smooth="yes"/>
      <point x="449" y="98"/>
      <point x="397" y="117"/>
      <point x="357" y="157" type="curve" smooth="yes"/>
      <point x="278" y="235"/>
      <point x="278" y="365"/>
      <point x="357" y="443" type="curve"/>
      <point x="396" y="483"/>
      <point x="449" y="503"/>
    </contour>
  </outline>
</glyph>
<glyph name="hand" format="2">
  <advance width="1000"/>
  <guideline x="526.0" y="740.0" angle="0" identifier="Km6dzVU4w6"/>
  <outline>
    <contour>
      <point x="660" y="439" type="curve"/>
      <point x="660" y="284" type="line" smooth="yes"/>
      <point x="660.0" y="265.0"/>
      <point x="672.0" y="254.0"/>
      <point x="690" y="254" type="curve" smooth="yes"/>
      <point x="708" y="254"/>
      <point x="720.0" y="265.0"/>
      <point x="720" y="284" type="curve" smooth="yes"/>
      <point x="720" y="389" type="line" smooth="yes"/>
      <point x="720.0" y="412.0"/>
      <point x="732.0" y="429.0"/>
      <point x="755" y="429" type="curve" smooth="yes"/>
      <point x="778" y="429"/>
      <point x="790" y="412"/>
      <point x="790" y="389" type="curve" smooth="yes"/>
      <point x="790" y="181" type="line" smooth="yes"/>
      <point x="790" y="40"/>
      <point x="674" y="-75"/>
      <point x="535" y="-75" type="curve" smooth="yes"/>
      <point x="470" y="-75"/>
      <point x="406" y="-49"/>
      <point x="355" y="0" type="curve" smooth="yes"/>
      <point x="139" y="210" type="line" smooth="yes"/>
      <point x="130" y="219"/>
      <point x="124" y="229"/>
      <point x="124" y="240" type="curve" smooth="yes"/>
      <point x="124" y="259"/>
      <point x="137" y="276"/>
      <point x="161" y="276" type="curve" smooth="yes"/>
      <point x="171" y="276"/>
      <point x="182" y="271"/>
      <point x="191" y="261" type="curve"/>
      <point x="260" y="185" type="line" smooth="yes"/>
      <point x="292" y="150"/>
      <point x="330" y="175"/>
      <point x="330" y="204" type="curve" smooth="yes"/>
      <point x="330" y="639" type="line" smooth="yes"/>
      <point x="330" y="662"/>
      <point x="342" y="679"/>
      <point x="365" y="679" type="curve"/>
      <point x="388" y="679"/>
      <point x="400" y="662"/>
      <point x="400" y="639" type="curve"/>
      <point x="400" y="284" type="line" smooth="yes"/>
      <point x="400.0" y="265.0"/>
      <point x="412.0" y="254.0"/>
      <point x="430" y="254" type="curve" smooth="yes"/>
      <point x="448" y="254"/>
      <point x="460.0" y="265.0"/>
      <point x="460" y="284" type="curve" smooth="yes"/>
      <point x="460" y="489" type="line" smooth="yes"/>
      <point x="460" y="512"/>
      <point x="472" y="529"/>
      <point x="495" y="529" type="curve" smooth="yes"/>
      <point x="518" y="529"/>
      <point x="530" y="512"/>
      <point x="530" y="489" type="curve" smooth="yes"/>
      <point x="530" y="284" type="line" smooth="yes"/>
      <point x="530.0" y="265.0"/>
      <point x="542.0" y="254.0"/>
      <point x="560" y="254" type="curve" smooth="yes"/>
      <point x="578" y="254"/>
      <point x="590.0" y="265.0"/>
      <point x="590" y="284" type="curve" smooth="yes"/>
      <point x="590" y="439" type="line"/>
      <point x="590" y="462"/>
      <point x="602" y="479"/>
      <point x="625" y="479" type="curve" smooth="yes"/>
      <point x="648" y="479"/>
      <point x="660" y="462"/>
    </contour>
    <contour>
      <point x="714" y="465" type="line"/>
      <point x="705" y="517"/>
      <point x="668" y="539"/>
      <point x="634" y="539" type="curve" smooth="yes"/>
      <point x="606" y="539"/>
      <point x="588" y="527"/>
      <point x="581" y="516" type="curve"/>
      <point x="584" y="515" type="line"/>
      <point x="575" y="567"/>
      <point x="538" y="589"/>
      <point x="504" y="589" type="curve" smooth="yes"/>
      <point x="476" y="589"/>
      <point x="458" y="577"/>
      <point x="451" y="566" type="curve"/>
      <point x="460" y="554" type="line"/>
      <point x="460" y="639" type="line" smooth="yes"/>
      <point x="460.0" y="689.0"/>
      <point x="434" y="739"/>
      <point x="365" y="739" type="curve"/>
      <point x="296" y="739"/>
      <point x="270.0" y="689.0"/>
      <point x="270" y="639" type="curve" smooth="yes"/>
      <point x="270" y="224" type="line"/>
      <point x="274" y="255" type="line"/>
      <point x="232" y="302" type="line" smooth="yes"/>
      <point x="214" y="323"/>
      <point x="188" y="337"/>
      <point x="161" y="337" type="curve" smooth="yes"/>
      <point x="100.0" y="337"/>
      <point x="64.0" y="290.0"/>
      <point x="64" y="241" type="curve" smooth="yes"/>
      <point x="64" y="213"/>
      <point x="78" y="188"/>
      <point x="97" y="169" type="curve" smooth="yes"/>
      <point x="312" y="-43" type="line" smooth="yes"/>
      <point x="376" y="-106"/>
      <point x="453" y="-136"/>
      <point x="535" y="-136" type="curve" smooth="yes"/>
      <point x="706.0" y="-136.0"/>
      <point x="850.0" y="3.0"/>
      <point x="850" y="181" type="curve" smooth="yes"/>
      <point x="850" y="389" type="line" smooth="yes"/>
      <point x="850.0" y="439.0"/>
      <point x="826.0" y="489.0"/>
      <point x="764" y="489" type="curve" smooth="yes"/>
      <point x="736" y="489"/>
      <point x="718" y="477"/>
      <point x="711" y="466" type="curve"/>
    </contour>
    <contour>
      <point x="-630" y="215" type="line" smooth="yes"/>
      <point x="-630.0" y="196.0"/>
      <point x="-618.0" y="185.0"/>
      <point x="-600" y="185" type="curve" smooth="yes"/>
      <point x="-582" y="185"/>
      <point x="-570.0" y="196.0"/>
      <point x="-570" y="215" type="curve" smooth="yes"/>
      <point x="-570" y="562" type="line" smooth="yes"/>
      <point x="-570" y="583"/>
      <point x="-559.0285714285715" y="599.0"/>
      <point x="-538" y="599" type="curve" smooth="yes"/>
      <point x="-516.9714285714285" y="599.0"/>
      <point x="-506.0" y="583.275"/>
      <point x="-506" y="562" type="curve" smooth="yes"/>
      <point x="-506" y="344" type="line" smooth="yes"/>
      <point x="-506" y="325"/>
      <point x="-494.0" y="314.0"/>
      <point x="-476" y="314" type="curve" smooth="yes"/>
      <point x="-458" y="314"/>
      <point x="-446" y="325"/>
      <point x="-446" y="344" type="curve" smooth="yes"/>
      <point x="-446" y="643" type="line" smooth="yes"/>
      <point x="-446.0" y="664.275"/>
      <point x="-435.0285714285714" y="680.0"/>
      <point x="-414" y="680" type="curve" smooth="yes"/>
      <point x="-392.9714285714286" y="680.0"/>
      <point x="-382.0" y="664.275"/>
      <point x="-382" y="643" type="curve" smooth="yes"/>
      <point x="-382" y="344" type="line" smooth="yes"/>
      <point x="-382" y="325"/>
      <point x="-370.0" y="314.0"/>
      <point x="-352" y="314" type="curve" smooth="yes"/>
      <point x="-334" y="314"/>
      <point x="-322" y="325"/>
      <point x="-322" y="344" type="curve" smooth="yes"/>
      <point x="-322" y="562" type="line" smooth="yes"/>
      <point x="-322.0" y="583.275"/>
      <point x="-311.0285714285714" y="599.0"/>
      <point x="-290" y="599" type="curve"/>
      <point x="-268.9714285714286" y="599.0"/>
      <point x="-258.0" y="583.275"/>
      <point x="-258" y="562" type="curve" smooth="yes"/>
      <point x="-258" y="344" type="line" smooth="yes"/>
      <point x="-258" y="325"/>
      <point x="-246.0" y="314.0"/>
      <point x="-228" y="314" type="curve" smooth="yes"/>
      <point x="-210" y="314"/>
      <point x="-198" y="325"/>
      <point x="-198" y="344" type="curve" smooth="yes"/>
      <point x="-198" y="482" type="line" smooth="yes"/>
      <point x="-198.0" y="503.275"/>
      <point x="-187.02857142857144" y="519.0"/>
      <point x="-166" y="519" type="curve"/>
      <point x="-144.97142857142856" y="519.0"/>
      <point x="-134.0" y="503.275"/>
      <point x="-134" y="482" type="curve" smooth="yes"/>
      <point x="-134" y="181" type="line" smooth="yes"/>
      <point x="-134" y="20"/>
      <point x="-257.0983050847458" y="-75.0"/>
      <point x="-405" y="-75" type="curve" smooth="yes"/>
      <point x="-542.0719706551986" y="-75.0"/>
      <point x="-634" y="6"/>
      <point x="-659" y="119" type="curve" smooth="yes"/>
      <point x="-698" y="297" type="line" smooth="yes"/>
      <point x="-706" y="332"/>
      <point x="-688.0" y="349.0"/>
      <point x="-665" y="349" type="curve"/>
      <point x="-642.0" y="349.0"/>
      <point x="-630.0" y="332.0"/>
      <point x="-630" y="309" type="curve"/>
      <point x="-600" y="309" type="line"/>
      <point x="-600.0" y="359.0"/>
      <point x="-621.0" y="409.0"/>
      <point x="-675" y="409" type="curve" smooth="yes"/>
      <point x="-737.0" y="409.0"/>
      <point x="-771" y="358"/>
      <point x="-758" y="297" type="curve" smooth="yes"/>
      <point x="-716" y="101" type="line" smooth="yes"/>
      <point x="-688" y="-30"/>
      <point x="-574.0788732394365" y="-136.0"/>
      <point x="-405" y="-136" type="curve" smooth="yes"/>
      <point x="-225.04788732394366" y="-136.0"/>
      <point x="-74" y="-17"/>
      <point x="-74" y="181" type="curve" smooth="yes"/>
      <point x="-74" y="482" type="line" smooth="yes"/>
      <point x="-74.0" y="530.5"/>
      <point x="-96.18823529411765" y="579.0"/>
      <point x="-156" y="579" type="curve" smooth="yes"/>
      <point x="-207.84" y="579.0"/>
      <point x="-228.0" y="530.5"/>
      <point x="-228" y="482" type="curve"/>
      <point x="-198" y="562" type="line"/>
      <point x="-198.0" y="610.5"/>
      <point x="-220.18823529411765" y="659.0"/>
      <point x="-280" y="659" type="curve" smooth="yes"/>
      <point x="-331.84" y="659.0"/>
      <point x="-352.0" y="610.5"/>
      <point x="-352" y="562" type="curve"/>
      <point x="-322" y="643" type="line"/>
      <point x="-322.0" y="691.5"/>
      <point x="-347.17894736842106" y="740.0"/>
      <point x="-414" y="740" type="curve" smooth="yes"/>
      <point x="-480.82105263157894" y="740.0"/>
      <point x="-506.0" y="691.5"/>
      <point x="-506" y="643" type="curve"/>
      <point x="-476" y="562" type="line"/>
      <point x="-476.0" y="610.5"/>
      <point x="-496.16" y="659.0"/>
      <point x="-548" y="659" type="curve" smooth="yes"/>
      <point x="-607.8117647058823" y="659.0"/>
      <point x="-630" y="611"/>
      <point x="-630" y="562" type="curve" smooth="yes"/>
    </contour>
  </outline>
</glyph>
<glyph name="info" format="2">
  <advance width="1000"/>
  <outline>
    <contour>
      <point x="729" y="-50" type="line" smooth="yes"/>
      <point x="746" y="-50"/>
      <point x="760" y="-37"/>
      <point x="760" y="-20" type="curve" smooth="yes"/>
      <point x="760" y="-3"/>
      <point x="747" y="10"/>
      <point x="730" y="10" type="curve" smooth="yes"/>
      <point x="545" y="10" type="line"/>
      <point x="545" y="455" type="line" smooth="yes"/>
      <point x="545" y="472"/>
      <point x="532" y="485"/>
      <point x="515" y="485" type="curve"/>
      <point x="281" y="485" type="line" smooth="yes"/>
      <point x="264" y="485"/>
      <point x="251" y="472"/>
      <point x="251" y="455" type="curve" smooth="yes"/>
      <point x="251" y="438"/>
      <point x="264" y="425"/>
      <point x="281" y="425" type="curve" smooth="yes"/>
      <point x="465" y="425" type="line"/>
      <point x="465" y="10" type="line"/>
      <point x="281" y="10" type="line" smooth="yes"/>
      <point x="264" y="10"/>
      <point x="251" y="-3"/>
      <point x="251" y="-20" type="curve" smooth="yes"/>
      <point x="251" y="-37"/>
      <point x="264" y="-50"/>
      <point x="281" y="-50" type="curve" smooth="yes"/>
    </contour>
    <contour>
      <point x="502" y="580" type="curve" smooth="yes"/>
      <point x="532.0" y="580.0"/>
      <point x="562.0" y="611.0"/>
      <point x="562" y="641" type="curve" smooth="yes"/>
      <point x="562.0" y="671.6374007394705"/>
      <point x="533.3478192442951" y="700.0"/>
      <point x="502" y="700" type="curve" smooth="yes"/>
      <point x="472.61141945847334" y="700.0"/>
      <point x="443.0" y="672.6798941221018"/>
      <point x="443" y="640" type="curve" smooth="yes"/>
      <point x="443.0" y="610.0"/>
      <point x="472.0" y="580.0"/>
    </contour>
  </outline>
</glyph>
<glyph name="kerningtool" format="2">
  <advance width="1000"/>
  <outline>
    <contour>
      <point x="859" y="155" type="line"/>
      <point x="667" y="155" type="line"/>
      <point x="667" y="215" type="line"/>
      <point x="860" y="215" type="line"/>
    </contour>
    <contour>
      <point x="235" y="-16" type="curve"/>
      <point x="207" y="-16"/>
      <point x="185" y="-1"/>
      <point x="177" y="36" type="curve" smooth="yes"/>
      <point x="42" y="569" type="line" smooth="yes"/>
      <point x="35" y="601"/>
      <point x="52" y="620"/>
      <point x="76" y="620" type="curve"/>
      <point x="93" y="620"/>
      <point x="106" y="610"/>
      <point x="112" y="586" type="curve" smooth="yes"/>
      <point x="243" y="36" type="line"/>
      <point x="227" y="36" type="line"/>
      <point x="359" y="586" type="line" smooth="yes"/>
      <point x="365" y="610"/>
      <point x="378" y="620"/>
      <point x="393" y="620" type="curve"/>
      <point x="418" y="620"/>
      <point x="435" y="601"/>
      <point x="427" y="569" type="curve" smooth="yes"/>
      <point x="293" y="36" type="line" smooth="yes"/>
      <point x="284" y="-1"/>
      <point x="262" y="-16"/>
    </contour>
    <contour>
      <point x="404" y="26" type="line"/>
      <point x="408" y="41"/>
      <point x="421" y="49"/>
      <point x="436" y="46" type="curve" smooth="yes"/>
      <point x="451" y="41"/>
      <point x="458" y="29"/>
      <point x="455" y="14" type="curve"/>
      <point x="433" y="-71" type="line"/>
      <point x="430" y="-88"/>
      <point x="416" y="-96"/>
      <point x="401" y="-93" type="curve" smooth="yes"/>
      <point x="387" y="-89"/>
      <point x="379" y="-75"/>
      <point x="383" y="-60" type="curve"/>
    </contour>
    <contour>
      <point x="459" y="244" type="line"/>
      <point x="463" y="259"/>
      <point x="476" y="267"/>
      <point x="491" y="263" type="curve" smooth="yes"/>
      <point x="505" y="259"/>
      <point x="513" y="247"/>
      <point x="510" y="231" type="curve"/>
      <point x="488" y="147" type="line"/>
      <point x="485" y="130"/>
      <point x="471" y="121"/>
      <point x="456" y="125" type="curve" smooth="yes"/>
      <point x="442" y="129"/>
      <point x="434" y="142"/>
      <point x="438" y="158" type="curve"/>
    </contour>
    <contour>
      <point x="514" y="461" type="line"/>
      <point x="518" y="477"/>
      <point x="531" y="484"/>
      <point x="546" y="481" type="curve" smooth="yes"/>
      <point x="561" y="477"/>
      <point x="568" y="465"/>
      <point x="565" y="449" type="curve"/>
      <point x="543" y="365" type="line"/>
      <point x="540" y="348"/>
      <point x="526" y="339"/>
      <point x="511" y="343" type="curve" smooth="yes"/>
      <point x="497" y="347"/>
      <point x="489" y="360"/>
      <point x="493" y="376" type="curve"/>
    </contour>
    <contour>
      <point x="569" y="679" type="line"/>
      <point x="573" y="695"/>
      <point x="586" y="702"/>
      <point x="601" y="699" type="curve" smooth="yes"/>
      <point x="616" y="695"/>
      <point x="623" y="682"/>
      <point x="620" y="667" type="curve"/>
      <point x="598" y="582" type="line"/>
      <point x="595" y="566"/>
      <point x="581" y="557"/>
      <point x="566" y="560" type="curve" smooth="yes"/>
      <point x="552" y="565"/>
      <point x="544" y="578"/>
      <point x="548" y="593" type="curve"/>
    </contour>
    <contour>
      <point x="765" y="620" type="curve"/>
      <point x="793" y="620"/>
      <point x="815" y="605"/>
      <point x="823" y="568" type="curve" smooth="yes"/>
      <point x="958" y="35" type="line" smooth="yes"/>
      <point x="965" y="3"/>
      <point x="948" y="-16"/>
      <point x="924" y="-16" type="curve"/>
      <point x="907" y="-16"/>
      <point x="894" y="-6"/>
      <point x="888" y="18" type="curve" smooth="yes"/>
      <point x="757" y="568" type="line"/>
      <point x="773" y="568" type="line"/>
      <point x="641" y="18" type="line" smooth="yes"/>
      <point x="635" y="-6"/>
      <point x="622" y="-16"/>
      <point x="607" y="-16" type="curve"/>
      <point x="582" y="-16"/>
      <point x="565" y="3"/>
      <point x="573" y="35" type="curve" smooth="yes"/>
      <point x="707" y="568" type="line" smooth="yes"/>
      <point x="716" y="605"/>
      <point x="738" y="620"/>
    </contour>
  </outline>
</glyph>
<glyph name="knifetool" format="2">
  <advance width="1000"/>
  <outline>
    <contour>
      <point x="105" y="-54" type="curve" smooth="yes"/>
      <point x="318" y="-54"/>
      <point x="531" y="24"/>
      <point x="718" y="211" type="curve" smooth="yes"/>
      <point x="734" y="227"/>
      <point x="740" y="252"/>
      <point x="717" y="276" type="curve" smooth="yes"/>
      <point x="689" y="306" type="line"/>
      <point x="912" y="528" type="line" smooth="yes"/>
      <point x="959" y="574"/>
      <point x="956" y="624"/>
      <point x="915" y="664" type="curve" smooth="yes"/>
      <point x="884" y="693" type="line" smooth="yes"/>
      <point x="846" y="729"/>
      <point x="791" y="732"/>
      <point x="749" y="690" type="curve" smooth="yes"/>
      <point x="79" y="25" type="line" smooth="yes"/>
      <point x="42" y="-11"/>
      <point x="59" y="-54"/>
    </contour>
    <contour>
      <point x="634" y="274" type="curve"/>
      <point x="661" y="246" type="line"/>
      <point x="509" y="96"/>
      <point x="339" y="23"/>
      <point x="151" y="9" type="curve"/>
      <point x="792" y="645" type="line" smooth="yes"/>
      <point x="809" y="662"/>
      <point x="825" y="664"/>
      <point x="840" y="649" type="curve" smooth="yes"/>
      <point x="871" y="620" type="line" smooth="yes"/>
      <point x="885" y="606"/>
      <point x="886" y="593"/>
      <point x="866" y="573" type="curve" smooth="yes"/>
      <point x="633" y="339" type="line"/>
      <point x="617" y="323"/>
      <point x="611" y="298"/>
    </contour>
  </outline>
</glyph>
<glyph name="layers" format="2">
  <advance width="1000"/>
  <outline>
    <contour>
      <point x="504" y="-140"/>
      <point x="496" y="-140"/>
      <point x="490.0" y="-137.0" type="curve" smooth="yes"/>
      <point x="85.0" y="41.0" type="line" smooth="yes"/>
      <point x="76.0" y="45.0"/>
      <point x="69.0" y="53.999999999999886"/>
      <point x="69.0" y="65.0" type="curve" smooth="yes"/>
      <point x="69.0" y="76.00000000000011"/>
      <point x="75.0" y="85.0"/>
      <point x="85.0" y="89.0" type="curve" smooth="yes"/>
      <point x="209.0" y="144.0" type="line"/>
      <point x="85.0" y="198.0" type="line" smooth="yes"/>
      <point x="76.0" y="202.0"/>
      <point x="69.0" y="211.0"/>
      <point x="69.0" y="222.0" type="curve" smooth="yes"/>
      <point x="69.0" y="233.0"/>
      <point x="75.0" y="242.0"/>
      <point x="85.0" y="246.0" type="curve" smooth="yes"/>
      <point x="209.0" y="300.0" type="line"/>
      <point x="85.0" y="355.0" type="line" smooth="yes"/>
      <point x="76.0" y="359.0"/>
      <point x="69.0" y="368.0"/>
      <point x="69.0" y="379.0" type="curve" smooth="yes"/>
      <point x="69.0" y="389.0"/>
      <point x="75.0" y="399.0"/>
      <point x="85.0" y="403.0" type="curve" smooth="yes"/>
      <point x="209.0" y="458.0" type="line"/>
      <point x="85.0" y="511.0" type="line" smooth="yes"/>
      <point x="76.0" y="515.0"/>
      <point x="69.0" y="524.0"/>
      <point x="69.0" y="535.0" type="curve" smooth="yes"/>
      <point x="69.0" y="545.0"/>
      <point x="75.0" y="555.0"/>
      <point x="85.0" y="559.0" type="curve" smooth="yes"/>
      <point x="490.0" y="737.0" type="line" smooth="yes"/>
      <point x="496.0" y="740.0"/>
      <point x="504.0" y="740.0"/>
      <point x="510.0" y="737.0" type="curve" smooth="yes"/>
      <point x="915.0" y="559.0" type="line" smooth="yes"/>
      <point x="924.0" y="555.0"/>
      <point x="931.0" y="546.0"/>
      <point x="931.0" y="535.0" type="curve" smooth="yes"/>
      <point x="931.0" y="525.0"/>
      <point x="925.0" y="515.0"/>
      <point x="915.0" y="511.0" type="curve" smooth="yes"/>
      <point x="791.0" y="456.0" type="line"/>
      <point x="915.0" y="401.0" type="line" smooth="yes"/>
      <point x="924.0" y="397.0"/>
      <point x="931.0" y="388.00000000000006"/>
      <point x="931.0" y="377.0" type="curve" smooth="yes"/>
      <point x="931.0" y="367.0"/>
      <point x="925.0" y="357.0"/>
      <point x="915.0" y="353.00000000000006" type="curve" smooth="yes"/>
      <point x="791.0" y="300.0" type="line"/>
      <point x="915.0" y="245.0" type="line" smooth="yes"/>
      <point x="924.0" y="241.0"/>
      <point x="931.0" y="232.0"/>
      <point x="931.0" y="221.0" type="curve" smooth="yes"/>
      <point x="931.0" y="210.0"/>
      <point x="925.0" y="201.0"/>
      <point x="915.0" y="197.0" type="curve" smooth="yes"/>
      <point x="791.0" y="142.0" type="line"/>
      <point x="915.0" y="87.0" type="line" smooth="yes"/>
      <point x="924.0" y="83.0"/>
      <point x="931.0" y="74.0"/>
      <point x="931.0" y="63.0" type="curve" smooth="yes"/>
      <point x="931.0" y="51.999999999999886"/>
      <point x="925.0" y="43.0"/>
      <point x="915.0" y="38.999999999999886" type="curve" smooth="yes"/>
      <point x="510.0" y="-137.0" type="line" smooth="yes"/>
    </contour>
    <contour>
      <point x="160.0" y="65.0" type="line"/>
      <point x="500.0" y="-85.0" type="line"/>
      <point x="840.0" y="65.0" type="line"/>
      <point x="726.0" y="115.0" type="line"/>
      <point x="510.0" y="20.0" type="line" smooth="yes"/>
      <point x="503.0" y="17.0"/>
      <point x="496.0" y="17.0"/>
      <point x="489.0" y="20.0" type="curve" smooth="yes"/>
      <point x="273.0" y="115.0" type="line"/>
    </contour>
    <contour>
      <point x="284.0" y="167.0" type="curve"/>
      <point x="500.0" y="72.0" type="line"/>
      <point x="716.0" y="167.0" type="line"/>
      <point x="716.0" y="167.0"/>
      <point x="716.9999999999999" y="167.0"/>
      <point x="716.9999999999999" y="168.0" type="curve"/>
      <point x="840.0" y="222.0" type="line"/>
      <point x="726.0" y="272.0" type="line"/>
      <point x="510.0" y="176.0" type="line" smooth="yes"/>
      <point x="503.0" y="173.0"/>
      <point x="496.0" y="173.0"/>
      <point x="489.0" y="176.0" type="curve" smooth="yes"/>
      <point x="273.0" y="271.0" type="line"/>
      <point x="158.99999999999997" y="221.0" type="line"/>
      <point x="281.99999999999994" y="167.0" type="line"/>
      <point x="283.0" y="167.0"/>
      <point x="284.0" y="167.0"/>
    </contour>
    <contour>
      <point x="284.0" y="324.0" type="curve"/>
      <point x="500.0" y="229.0" type="line"/>
      <point x="716.0" y="324.0" type="line"/>
      <point x="716.0" y="324.0"/>
      <point x="716.9999999999999" y="324.0"/>
      <point x="716.9999999999999" y="325.0" type="curve"/>
      <point x="840.0" y="378.0" type="line"/>
      <point x="726.0" y="428.0" type="line"/>
      <point x="510.0" y="333.0" type="line" smooth="yes"/>
      <point x="503.0" y="330.0"/>
      <point x="496.0" y="330.0"/>
      <point x="489.0" y="333.0" type="curve" smooth="yes"/>
      <point x="273.0" y="428.0" type="line"/>
      <point x="158.99999999999997" y="378.0" type="line"/>
      <point x="281.99999999999994" y="324.0" type="line"/>
      <point x="283.0" y="324.0"/>
      <point x="284.0" y="324.0"/>
    </contour>
    <contour>
      <point x="284.0" y="480.0" type="curve"/>
      <point x="500.0" y="385.0" type="line"/>
      <point x="716.0" y="480.0" type="line"/>
      <point x="716.0" y="480.0"/>
      <point x="716.9999999999999" y="480.0"/>
      <point x="716.9999999999999" y="481.0" type="curve"/>
      <point x="840.0" y="535.0" type="line"/>
      <point x="500.0" y="685.0" type="line"/>
      <point x="160.0" y="535.0" type="line"/>
      <point x="284.0" y="481.0" type="line"/>
      <point x="283.0" y="481.0"/>
      <point x="284.0" y="481.0"/>
    </contour>
  </outline>
</glyph>
<glyph name="magnifyingglass" format="2">
  <advance width="1000"/>
  <outline>
    <contour>
      <point x="380" y="640" type="curve" smooth="yes"/>
      <point x="501" y="640"/>
      <point x="600" y="541"/>
      <point x="600" y="420" type="curve" smooth="yes"/>
      <point x="600" y="299"/>
      <point x="501" y="200"/>
      <point x="380" y="200" type="curve" smooth="yes"/>
      <point x="259" y="200"/>
      <point x="160" y="299"/>
      <point x="160" y="420" type="curve" smooth="yes"/>
      <point x="160" y="541"/>
      <point x="259" y="640"/>
    </contour>
    <contour>
      <point x="840" y="-91" type="curve" smooth="yes"/>
      <point x="865.9354834727299" y="-91.0"/>
      <point x="890.0" y="-65.06483830745715"/>
      <point x="890" y="-39" type="curve" smooth="yes"/>
      <point x="890" y="-26"/>
      <point x="885" y="-13"/>
      <point x="875" y="-3" type="curve" smooth="yes"/>
      <point x="681" y="191" type="line" smooth="yes"/>
      <point x="669" y="203"/>
      <point x="652" y="208"/>
      <point x="637" y="205" type="curve"/>
      <point x="598" y="244" type="line"/>
      <point x="637" y="292"/>
      <point x="660" y="354"/>
      <point x="660" y="420" type="curve" smooth="yes"/>
      <point x="660" y="574"/>
      <point x="534" y="700"/>
      <point x="380" y="700" type="curve" smooth="yes"/>
      <point x="226" y="700"/>
      <point x="100" y="574"/>
      <point x="100" y="420" type="curve" smooth="yes"/>
      <point x="100" y="266"/>
      <point x="226" y="140"/>
      <point x="380" y="140" type="curve"/>
      <point x="446" y="140"/>
      <point x="508" y="163"/>
      <point x="556" y="202" type="curve"/>
      <point x="595" y="163" type="line"/>
      <point x="592" y="148"/>
      <point x="597" y="131"/>
      <point x="609" y="119" type="curve" smooth="yes"/>
      <point x="804" y="-76" type="line" smooth="yes"/>
      <point x="814" y="-86"/>
      <point x="827" y="-91"/>
    </contour>
  </outline>
</glyph>
<glyph name="minus" format="2">
  <advance width="1000"/>
  <outline>
    <contour>
      <point x="860.0" y="310.0" type="curve" smooth="yes"/>
      <point x="860.0" y="290.0" type="line" smooth="yes"/>
      <point x="860.0" y="273.0"/>
      <point x="847.0" y="260.0"/>
      <point x="830.0" y="260.0" type="curve" smooth="yes"/>
      <point x="170.0" y="260.0" type="line" smooth="yes"/>
      <point x="153.0" y="260.0"/>
      <point x="140.0" y="273.0"/>
      <point x="140.0" y="290.0" type="curve" smooth="yes"/>
      <point x="140.0" y="310.0" type="line" smooth="yes"/>
      <point x="140.0" y="327.0"/>
      <point x="153.0" y="340.0"/>
      <point x="170.0" y="340.0" type="curve" smooth="yes"/>
      <point x="830.0" y="340.0" type="line" smooth="yes"/>
      <point x="847.0" y="340.0"/>
      <point x="860.0" y="327.0"/>
    </contour>
  </outline>
</glyph>
<glyph name="ovaltool" format="2">
  <advance width="1000"/>
  <outline>
    <contour>
      <point x="852" y="-127" type="line" smooth="yes"/>
      <point x="852" y="-151"/>
      <point x="836" y="-162"/>
      <point x="820" y="-162" type="curve" smooth="yes"/>
      <point x="804" y="-162"/>
      <point x="787" y="-151"/>
      <point x="787" y="-127" type="curve" smooth="yes"/>
      <point x="787" y="-45" type="line"/>
      <point x="709" y="-45" type="line" smooth="yes"/>
      <point x="686" y="-45"/>
      <point x="675" y="-29"/>
      <point x="675" y="-13" type="curve" smooth="yes"/>
      <point x="675" y="3"/>
      <point x="686" y="18"/>
      <point x="709" y="18" type="curve" smooth="yes"/>
      <point x="787" y="18" type="line"/>
      <point x="787" y="100" type="line" smooth="yes"/>
      <point x="787" y="124"/>
      <point x="804" y="135"/>
      <point x="819" y="135" type="curve" smooth="yes"/>
      <point x="836" y="135"/>
      <point x="852" y="124"/>
      <point x="852" y="100" type="curve" smooth="yes"/>
      <point x="852" y="18" type="line"/>
      <point x="930" y="18" type="line" smooth="yes"/>
      <point x="953" y="18"/>
      <point x="964" y="3"/>
      <point x="964" y="-13" type="curve" smooth="yes"/>
      <point x="964" y="-29"/>
      <point x="953" y="-45"/>
      <point x="930" y="-45" type="curve" smooth="yes"/>
      <point x="852" y="-45" type="line"/>
    </contour>
    <contour>
      <point x="567" y="11" type="curve"/>
      <point x="586" y="15"/>
      <point x="608" y="6"/>
      <point x="608" y="-18" type="curve" smooth="yes"/>
      <point x="608" y="-33"/>
      <point x="600" y="-48"/>
      <point x="580" y="-52" type="curve" smooth="yes"/>
      <point x="554" y="-57"/>
      <point x="526" y="-60"/>
      <point x="497" y="-60" type="curve" smooth="yes"/>
      <point x="281" y="-60"/>
      <point x="125" y="96"/>
      <point x="125" y="311" type="curve" smooth="yes"/>
      <point x="125" y="527"/>
      <point x="281" y="683"/>
      <point x="497" y="683" type="curve" smooth="yes"/>
      <point x="712" y="683"/>
      <point x="869" y="527"/>
      <point x="869" y="311" type="curve"/>
      <point x="869" y="282"/>
      <point x="867" y="255"/>
      <point x="862" y="230" type="curve" smooth="yes"/>
      <point x="857" y="209"/>
      <point x="845" y="199"/>
      <point x="828" y="199" type="curve" smooth="yes"/>
      <point x="802" y="199"/>
      <point x="793" y="218"/>
      <point x="797" y="239" type="curve" smooth="yes"/>
      <point x="802" y="267"/>
      <point x="804" y="290"/>
      <point x="804" y="311" type="curve"/>
      <point x="804" y="490"/>
      <point x="674" y="620"/>
      <point x="497" y="620" type="curve" smooth="yes"/>
      <point x="320" y="620"/>
      <point x="190" y="490"/>
      <point x="190" y="311" type="curve" smooth="yes"/>
      <point x="190" y="133"/>
      <point x="320" y="3"/>
      <point x="497" y="3" type="curve" smooth="yes"/>
      <point x="521" y="3"/>
      <point x="545" y="6"/>
    </contour>
  </outline>
</glyph>
<glyph name="pen" format="2">
  <advance width="1000"/>
  <guideline x="857" y="500" angle="90"/>
  <outline>
    <contour>
      <point x="134" y="273" type="line"/>
      <point x="134" y="290"/>
      <point x="147" y="303"/>
      <point x="164" y="303" type="curve"/>
      <point x="317" y="303" type="line"/>
      <point x="334" y="303"/>
      <point x="347" y="290"/>
      <point x="347" y="273" type="curve"/>
      <point x="347" y="123" type="line"/>
      <point x="347" y="106"/>
      <point x="334" y="93"/>
      <point x="317" y="93" type="curve"/>
      <point x="164" y="93" type="line"/>
      <point x="147" y="93"/>
      <point x="134" y="106"/>
      <point x="134" y="123" type="curve"/>
    </contour>
    <contour>
      <point x="194" y="153" type="line"/>
      <point x="287" y="153" type="line"/>
      <point x="287" y="243" type="line"/>
      <point x="194" y="243" type="line"/>
    </contour>
    <contour>
      <point x="665" y="273" type="line"/>
      <point x="665" y="290"/>
      <point x="678" y="303"/>
      <point x="695" y="303" type="curve"/>
      <point x="848" y="303" type="line"/>
      <point x="865" y="303"/>
      <point x="878" y="290"/>
      <point x="878" y="273" type="curve"/>
      <point x="878" y="123" type="line"/>
      <point x="878" y="106"/>
      <point x="865" y="93"/>
      <point x="848" y="93" type="curve"/>
      <point x="695" y="93" type="line"/>
      <point x="678" y="93"/>
      <point x="665" y="106"/>
      <point x="665" y="123" type="curve"/>
    </contour>
    <contour>
      <point x="725" y="153" type="line"/>
      <point x="818" y="153" type="line"/>
      <point x="818" y="243" type="line"/>
      <point x="725" y="243" type="line"/>
    </contour>
    <contour>
      <point x="588" y="533" type="line"/>
      <point x="707" y="504"/>
      <point x="808" y="407"/>
      <point x="808" y="243" type="curve"/>
      <point x="742" y="243" type="line"/>
      <point x="742" y="363"/>
      <point x="673" y="437"/>
      <point x="588" y="465" type="curve"/>
    </contour>
    <contour>
      <point x="443" y="469" type="line"/>
      <point x="352" y="445"/>
      <point x="276" y="369"/>
      <point x="276" y="243" type="curve"/>
      <point x="210" y="243" type="line"/>
      <point x="210" y="413"/>
      <point x="318" y="510"/>
      <point x="443" y="536" type="curve"/>
    </contour>
    <contour>
      <point x="289" y="508" type="curve" smooth="yes"/>
      <point x="289" y="470"/>
      <point x="259" y="440"/>
      <point x="221" y="440" type="curve" smooth="yes"/>
      <point x="183" y="440"/>
      <point x="153" y="470"/>
      <point x="153" y="508" type="curve" smooth="yes"/>
      <point x="153" y="546"/>
      <point x="183" y="576"/>
      <point x="221" y="576" type="curve" smooth="yes"/>
      <point x="259" y="576"/>
      <point x="289" y="546"/>
    </contour>
    <contour>
      <point x="558" y="526" type="line"/>
      <point x="783" y="526" type="line"/>
      <point x="783" y="490" type="line"/>
      <point x="558" y="490" type="line"/>
    </contour>
    <contour>
      <point x="881" y="508" type="curve" smooth="yes"/>
      <point x="881" y="470"/>
      <point x="851" y="440"/>
      <point x="813" y="440" type="curve" smooth="yes"/>
      <point x="775" y="440"/>
      <point x="745" y="470"/>
      <point x="745" y="508" type="curve" smooth="yes"/>
      <point x="745" y="546"/>
      <point x="775" y="576"/>
      <point x="813" y="576" type="curve" smooth="yes"/>
      <point x="851" y="576"/>
      <point x="881" y="546"/>
    </contour>
    <contour>
      <point x="405" y="583" type="line"/>
      <point x="405" y="600"/>
      <point x="418" y="613"/>
      <point x="435" y="613" type="curve"/>
      <point x="588" y="613" type="line"/>
      <point x="605" y="613"/>
      <point x="618" y="600"/>
      <point x="618" y="583" type="curve"/>
      <point x="618" y="433" type="line"/>
      <point x="618" y="416"/>
      <point x="605" y="403"/>
      <point x="588" y="403" type="curve"/>
      <point x="435" y="403" type="line"/>
      <point x="418" y="403"/>
      <point x="405" y="416"/>
      <point x="405" y="433" type="curve"/>
    </contour>
    <contour>
      <point x="465" y="463" type="line"/>
      <point x="558" y="463" type="line"/>
      <point x="558" y="553" type="line"/>
      <point x="465" y="553" type="line"/>
    </contour>
    <contour>
      <point x="458" y="526" type="line"/>
      <point x="458" y="490" type="line"/>
      <point x="233" y="490" type="line"/>
      <point x="233" y="526" type="line"/>
    </contour>
  </outline>
</glyph>
<glyph name="penalt3" format="2">
  <advance width="1000"/>
  <outline>
    <contour>
      <point x="400" y="566" type="curve" smooth="yes"/>
      <point x="400" y="513"/>
      <point x="357" y="472"/>
      <point x="307" y="472" type="curve" smooth="yes"/>
      <point x="254" y="472"/>
      <point x="212" y="513"/>
      <point x="212" y="566" type="curve" smooth="yes"/>
      <point x="212" y="619"/>
      <point x="256" y="662"/>
      <point x="309" y="662" type="curve" smooth="yes"/>
      <point x="360" y="662"/>
      <point x="400" y="619"/>
    </contour>
    <contour>
      <point x="656" y="416" type="line"/>
      <point x="634" y="416"/>
      <point x="620" y="435"/>
      <point x="620" y="454" type="curve"/>
      <point x="620" y="642" type="line"/>
      <point x="620" y="663"/>
      <point x="634" y="680"/>
      <point x="656" y="680" type="curve"/>
      <point x="841" y="680" type="line"/>
      <point x="862" y="680"/>
      <point x="881" y="663"/>
      <point x="881" y="642" type="curve"/>
      <point x="881" y="454" type="line"/>
      <point x="881" y="435"/>
      <point x="862" y="416"/>
      <point x="841" y="416" type="curve"/>
    </contour>
    <contour>
      <point x="811" y="484" type="line"/>
      <point x="811" y="610" type="line"/>
      <point x="689" y="610" type="line"/>
      <point x="689" y="484" type="line"/>
    </contour>
    <contour>
      <point x="235" y="-52" type="line"/>
      <point x="215" y="-52"/>
      <point x="200" y="-33"/>
      <point x="200" y="-13" type="curve"/>
      <point x="200" y="175" type="line"/>
      <point x="200" y="195"/>
      <point x="215" y="213"/>
      <point x="235" y="213" type="curve"/>
      <point x="421" y="213" type="line"/>
      <point x="441" y="213"/>
      <point x="461" y="195"/>
      <point x="461" y="175" type="curve"/>
      <point x="461" y="-13" type="line"/>
      <point x="461" y="-33"/>
      <point x="441" y="-52"/>
      <point x="421" y="-52" type="curve"/>
    </contour>
    <contour>
      <point x="390" y="18" type="line"/>
      <point x="390" y="142" type="line"/>
      <point x="269" y="142" type="line"/>
      <point x="269" y="18" type="line"/>
    </contour>
    <contour>
      <point x="296" y="534" type="line"/>
      <point x="299" y="602" type="line"/>
      <point x="673" y="602" type="line"/>
      <point x="673" y="534" type="line"/>
    </contour>
    <contour>
      <point x="627" y="499" type="line"/>
      <point x="483" y="467"/>
      <point x="363" y="357"/>
      <point x="363" y="198" type="curve"/>
      <point x="288" y="194" type="line"/>
      <point x="288" y="398"/>
      <point x="449" y="542"/>
      <point x="630" y="566" type="curve"/>
    </contour>
  </outline>
</glyph>
<glyph name="penquad" format="2">
  <advance width="1000"/>
  <outline>
    <contour>
      <point x="134" y="273" type="line"/>
      <point x="134" y="290"/>
      <point x="147" y="303"/>
      <point x="164" y="303" type="curve"/>
      <point x="317" y="303" type="line"/>
      <point x="334" y="303"/>
      <point x="347" y="290"/>
      <point x="347" y="273" type="curve"/>
      <point x="347" y="123" type="line"/>
      <point x="347" y="106"/>
      <point x="334" y="93"/>
      <point x="317" y="93" type="curve"/>
      <point x="164" y="93" type="line"/>
      <point x="147" y="93"/>
      <point x="134" y="106"/>
      <point x="134" y="123" type="curve"/>
    </contour>
    <contour>
      <point x="194" y="153" type="line"/>
      <point x="287" y="153" type="line"/>
      <point x="287" y="243" type="line"/>
      <point x="194" y="243" type="line"/>
    </contour>
    <contour>
      <point x="665" y="273" type="line"/>
      <point x="665" y="290"/>
      <point x="678" y="303"/>
      <point x="695" y="303" type="curve"/>
      <point x="848" y="303" type="line"/>
      <point x="865" y="303"/>
      <point x="878" y="290"/>
      <point x="878" y="273" type="curve"/>
      <point x="878" y="123" type="line"/>
      <point x="878" y="106"/>
      <point x="865" y="93"/>
      <point x="848" y="93" type="curve"/>
      <point x="695" y="93" type="line"/>
      <point x="678" y="93"/>
      <point x="665" y="106"/>
      <point x="665" y="123" type="curve"/>
    </contour>
    <contour>
      <point x="725" y="153" type="line"/>
      <point x="818" y="153" type="line"/>
      <point x="818" y="243" type="line"/>
      <point x="725" y="243" type="line"/>
    </contour>
    <contour>
      <point x="742" y="243" type="line"/>
      <point x="742" y="555"/>
      <point x="276" y="556"/>
      <point x="276" y="243" type="curve"/>
      <point x="210" y="243" type="line"/>
      <point x="210" y="642"/>
      <point x="808" y="642"/>
      <point x="808" y="243" type="curve"/>
    </contour>
    <contour>
      <point x="296" y="548" type="curve" smooth="yes"/>
      <point x="296" y="510"/>
      <point x="266" y="480"/>
      <point x="228" y="480" type="curve" smooth="yes"/>
      <point x="190" y="480"/>
      <point x="160" y="510"/>
      <point x="160" y="548" type="curve" smooth="yes"/>
      <point x="160" y="586"/>
      <point x="190" y="616"/>
      <point x="228" y="616" type="curve" smooth="yes"/>
      <point x="266" y="616"/>
      <point x="296" y="586"/>
    </contour>
    <contour>
      <point x="210" y="508" type="line"/>
      <point x="246" y="508" type="line"/>
      <point x="246" y="243" type="line"/>
      <point x="210" y="243" type="line"/>
    </contour>
    <contour>
      <point x="858" y="548" type="curve" smooth="yes"/>
      <point x="858" y="510"/>
      <point x="828" y="480"/>
      <point x="790" y="480" type="curve" smooth="yes"/>
      <point x="752" y="480"/>
      <point x="722" y="510"/>
      <point x="722" y="548" type="curve" smooth="yes"/>
      <point x="722" y="586"/>
      <point x="752" y="616"/>
      <point x="790" y="616" type="curve" smooth="yes"/>
      <point x="828" y="616"/>
      <point x="858" y="586"/>
    </contour>
    <contour>
      <point x="772" y="508" type="line"/>
      <point x="808" y="508" type="line"/>
      <point x="808" y="243" type="line"/>
      <point x="772" y="243" type="line"/>
    </contour>
    <contour>
      <point x="237" y="530" type="line"/>
      <point x="237" y="566" type="line"/>
      <point x="792" y="566" type="line"/>
      <point x="792" y="530" type="line"/>
    </contour>
  </outline>
</glyph>
<glyph name="penquadalt" format="2">
  <advance width="1000"/>
  <guideline x="857" y="500" angle="90"/>
  <guideline x="320" y="680" angle="0"/>
  <guideline x="581" y="-77" angle="0"/>
  <outline>
    <contour>
      <point x="757" y="605" type="curve" smooth="yes"/>
      <point x="736" y="605"/>
      <point x="720" y="622"/>
      <point x="720" y="642" type="curve" smooth="yes"/>
      <point x="720" y="663"/>
      <point x="736" y="679"/>
      <point x="757" y="679" type="curve" smooth="yes"/>
      <point x="778" y="679"/>
      <point x="794" y="662"/>
      <point x="794" y="641" type="curve" smooth="yes"/>
      <point x="794" y="621"/>
      <point x="778" y="605"/>
    </contour>
    <contour>
      <point x="774" y="515" type="line"/>
      <point x="742" y="515" type="line"/>
      <point x="742" y="651" type="line"/>
      <point x="774" y="651" type="line"/>
    </contour>
    <contour>
      <point x="316" y="41"/>
      <point x="328" y="42"/>
      <point x="337" y="51" type="curve" smooth="yes"/>
      <point x="452" y="165" type="line"/>
      <point x="531" y="-27" type="line" smooth="yes"/>
      <point x="543" y="-57"/>
      <point x="580" y="-71"/>
      <point x="610" y="-59" type="curve" smooth="yes"/>
      <point x="639" y="-47"/>
      <point x="655" y="-12"/>
      <point x="642" y="19" type="curve" smooth="yes"/>
      <point x="563" y="211" type="line"/>
      <point x="724" y="211" type="line" smooth="yes"/>
      <point x="736" y="211"/>
      <point x="747" y="219"/>
      <point x="752" y="230" type="curve" smooth="yes"/>
      <point x="757" y="241"/>
      <point x="754" y="254"/>
      <point x="745" y="263" type="curve" smooth="yes"/>
      <point x="337" y="671" type="line" smooth="yes"/>
      <point x="329" y="680"/>
      <point x="316" y="682"/>
      <point x="305" y="677" type="curve" smooth="yes"/>
      <point x="293" y="673"/>
      <point x="286" y="662"/>
      <point x="286" y="650" type="curve" smooth="yes"/>
      <point x="286" y="72" type="line" smooth="yes"/>
      <point x="286" y="60"/>
      <point x="292" y="50"/>
      <point x="305" y="45" type="curve" smooth="yes"/>
    </contour>
    <contour>
      <point x="596" y="626" type="line"/>
      <point x="597" y="658" type="line"/>
      <point x="731" y="658" type="line"/>
      <point x="732" y="626" type="line"/>
    </contour>
    <contour>
      <point x="686" y="529" type="line"/>
      <point x="686" y="539"/>
      <point x="695" y="547"/>
      <point x="705" y="547" type="curve"/>
      <point x="795" y="547" type="line"/>
      <point x="805" y="547"/>
      <point x="814" y="539"/>
      <point x="814" y="529" type="curve"/>
      <point x="814" y="440" type="line"/>
      <point x="814" y="430"/>
      <point x="805" y="421"/>
      <point x="795" y="421" type="curve"/>
      <point x="705" y="421" type="line"/>
      <point x="695" y="421"/>
      <point x="686" y="430"/>
      <point x="686" y="440" type="curve"/>
    </contour>
    <contour>
      <point x="725" y="460" type="line"/>
      <point x="775" y="460" type="line"/>
      <point x="775" y="508" type="line"/>
      <point x="725" y="508" type="line"/>
    </contour>
    <contour>
      <point x="503" y="679" type="line"/>
      <point x="503" y="689"/>
      <point x="512" y="697"/>
      <point x="522" y="697" type="curve"/>
      <point x="612" y="697" type="line"/>
      <point x="622" y="697"/>
      <point x="631" y="689"/>
      <point x="631" y="679" type="curve"/>
      <point x="631" y="590" type="line"/>
      <point x="631" y="580"/>
      <point x="622" y="571"/>
      <point x="612" y="571" type="curve"/>
      <point x="522" y="571" type="line"/>
      <point x="512" y="571"/>
      <point x="503" y="580"/>
      <point x="503" y="590" type="curve"/>
    </contour>
    <contour>
      <point x="542" y="610" type="line"/>
      <point x="592" y="610" type="line"/>
      <point x="592" y="658" type="line"/>
      <point x="542" y="658" type="line"/>
    </contour>
    <contour>
      <point x="725" y="509" type="line"/>
      <point x="710" y="563"/>
      <point x="669" y="610"/>
      <point x="592" y="610" type="curve"/>
      <point x="592" y="649" type="line"/>
      <point x="691" y="645"/>
      <point x="747" y="583"/>
      <point x="765" y="509" type="curve"/>
    </contour>
  </outline>
</glyph>
<glyph name="penquadalt3" format="2">
  <advance width="1000"/>
  <outline>
    <contour>
      <point x="400" y="566" type="curve" smooth="yes"/>
      <point x="400" y="513"/>
      <point x="357" y="472"/>
      <point x="307" y="472" type="curve" smooth="yes"/>
      <point x="254" y="472"/>
      <point x="212" y="513"/>
      <point x="212" y="566" type="curve" smooth="yes"/>
      <point x="212" y="619"/>
      <point x="256" y="662"/>
      <point x="309" y="662" type="curve" smooth="yes"/>
      <point x="360" y="662"/>
      <point x="400" y="619"/>
    </contour>
    <contour>
      <point x="656" y="416" type="line"/>
      <point x="634" y="416"/>
      <point x="620" y="435"/>
      <point x="620" y="454" type="curve"/>
      <point x="620" y="642" type="line"/>
      <point x="620" y="663"/>
      <point x="634" y="680"/>
      <point x="656" y="680" type="curve"/>
      <point x="841" y="680" type="line"/>
      <point x="862" y="680"/>
      <point x="881" y="663"/>
      <point x="881" y="642" type="curve"/>
      <point x="881" y="454" type="line"/>
      <point x="881" y="435"/>
      <point x="862" y="416"/>
      <point x="841" y="416" type="curve"/>
    </contour>
    <contour>
      <point x="811" y="484" type="line"/>
      <point x="811" y="610" type="line"/>
      <point x="689" y="610" type="line"/>
      <point x="689" y="484" type="line"/>
    </contour>
    <contour>
      <point x="235" y="-52" type="line"/>
      <point x="215" y="-52"/>
      <point x="200" y="-33"/>
      <point x="200" y="-13" type="curve"/>
      <point x="200" y="175" type="line"/>
      <point x="200" y="195"/>
      <point x="215" y="213"/>
      <point x="235" y="213" type="curve"/>
      <point x="421" y="213" type="line"/>
      <point x="441" y="213"/>
      <point x="461" y="195"/>
      <point x="461" y="175" type="curve"/>
      <point x="461" y="-13" type="line"/>
      <point x="461" y="-33"/>
      <point x="441" y="-52"/>
      <point x="421" y="-52" type="curve"/>
    </contour>
    <contour>
      <point x="390" y="18" type="line"/>
      <point x="390" y="142" type="line"/>
      <point x="269" y="142" type="line"/>
      <point x="269" y="18" type="line"/>
    </contour>
    <contour>
      <point x="296" y="534" type="line"/>
      <point x="299" y="602" type="line"/>
      <point x="673" y="602" type="line"/>
      <point x="673" y="534" type="line"/>
    </contour>
    <contour>
      <point x="647" y="489" type="line"/>
      <point x="503" y="457"/>
      <point x="383" y="347"/>
      <point x="383" y="188" type="curve"/>
      <point x="308" y="184" type="line"/>
      <point x="308" y="388"/>
      <point x="469" y="532"/>
      <point x="650" y="556" type="curve"/>
    </contour>
    <contour>
      <point x="271" y="568" type="line"/>
      <point x="339" y="565" type="line"/>
      <point x="339" y="191" type="line"/>
      <point x="271" y="191" type="line"/>
    </contour>
  </outline>
</glyph>
<glyph name="penquadaltalt" format="2">
  <advance width="1000"/>
  <guideline x="857" y="500" angle="90"/>
  <guideline x="320" y="680" angle="0"/>
  <guideline x="581" y="-77" angle="0"/>
  <outline>
    <contour>
      <point x="796" y="597" type="curve" smooth="yes"/>
      <point x="771" y="597"/>
      <point x="751" y="618"/>
      <point x="751" y="642" type="curve" smooth="yes"/>
      <point x="751" y="667"/>
      <point x="771" y="687"/>
      <point x="796" y="687" type="curve" smooth="yes"/>
      <point x="821" y="687"/>
      <point x="841" y="666"/>
      <point x="841" y="641" type="curve" smooth="yes"/>
      <point x="841" y="617"/>
      <point x="821" y="597"/>
    </contour>
    <contour>
      <point x="316" y="41"/>
      <point x="328" y="42"/>
      <point x="337" y="51" type="curve" smooth="yes"/>
      <point x="452" y="165" type="line"/>
      <point x="531" y="-27" type="line" smooth="yes"/>
      <point x="543" y="-57"/>
      <point x="580" y="-71"/>
      <point x="610" y="-59" type="curve" smooth="yes"/>
      <point x="639" y="-47"/>
      <point x="655" y="-12"/>
      <point x="642" y="19" type="curve" smooth="yes"/>
      <point x="563" y="211" type="line"/>
      <point x="724" y="211" type="line" smooth="yes"/>
      <point x="736" y="211"/>
      <point x="747" y="219"/>
      <point x="752" y="230" type="curve" smooth="yes"/>
      <point x="757" y="241"/>
      <point x="754" y="254"/>
      <point x="745" y="263" type="curve" smooth="yes"/>
      <point x="337" y="671" type="line" smooth="yes"/>
      <point x="329" y="680"/>
      <point x="316" y="682"/>
      <point x="305" y="677" type="curve" smooth="yes"/>
      <point x="293" y="673"/>
      <point x="286" y="662"/>
      <point x="286" y="650" type="curve" smooth="yes"/>
      <point x="286" y="72" type="line" smooth="yes"/>
      <point x="286" y="60"/>
      <point x="292" y="50"/>
      <point x="305" y="45" type="curve" smooth="yes"/>
    </contour>
    <contour>
      <point x="717" y="481" type="line"/>
      <point x="717" y="492"/>
      <point x="727" y="500"/>
      <point x="738" y="500" type="curve"/>
      <point x="837" y="500" type="line"/>
      <point x="848" y="500"/>
      <point x="857" y="492"/>
      <point x="857" y="481" type="curve"/>
      <point x="857" y="383" type="line"/>
      <point x="857" y="372"/>
      <point x="848" y="362"/>
      <point x="837" y="362" type="curve"/>
      <point x="738" y="362" type="line"/>
      <point x="727" y="362"/>
      <point x="717" y="372"/>
      <point x="717" y="383" type="curve"/>
    </contour>
    <contour>
      <point x="762" y="407" type="line"/>
      <point x="812" y="407" type="line"/>
      <point x="812" y="455" type="line"/>
      <point x="762" y="455" type="line"/>
    </contour>
    <contour>
      <point x="495" y="681" type="line"/>
      <point x="495" y="692"/>
      <point x="505" y="700"/>
      <point x="516" y="700" type="curve"/>
      <point x="615" y="700" type="line"/>
      <point x="626" y="700"/>
      <point x="635" y="692"/>
      <point x="635" y="681" type="curve"/>
      <point x="635" y="583" type="line"/>
      <point x="635" y="572"/>
      <point x="626" y="562"/>
      <point x="615" y="562" type="curve"/>
      <point x="516" y="562" type="line"/>
      <point x="505" y="562"/>
      <point x="495" y="572"/>
      <point x="495" y="583" type="curve"/>
    </contour>
    <contour>
      <point x="540" y="607" type="line"/>
      <point x="590" y="607" type="line"/>
      <point x="590" y="655" type="line"/>
      <point x="540" y="655" type="line"/>
    </contour>
    <contour>
      <point x="754" y="467" type="line"/>
      <point x="740" y="545"/>
      <point x="691" y="599"/>
      <point x="593" y="590" type="curve"/>
      <point x="593" y="637" type="line"/>
      <point x="717" y="642"/>
      <point x="785" y="569"/>
      <point x="802" y="467" type="curve"/>
    </contour>
    <contour>
      <point x="596" y="626" type="line"/>
      <point x="597" y="658" type="line"/>
      <point x="780" y="658" type="line"/>
      <point x="781" y="626" type="line"/>
    </contour>
    <contour>
      <point x="781" y="647" type="line"/>
      <point x="813" y="646" type="line"/>
      <point x="813" y="463" type="line"/>
      <point x="781" y="462" type="line"/>
    </contour>
  </outline>
</glyph>
<glyph name="plus" format="2">
  <advance width="1000"/>
  <outline>
    <contour>
      <point x="510.0" y="-60.0" type="curve" smooth="yes"/>
      <point x="490.0" y="-60.0" type="line" smooth="yes"/>
      <point x="473" y="-60"/>
      <point x="460.0" y="-47.0"/>
      <point x="460.0" y="-30.0" type="curve" smooth="yes"/>
      <point x="460.0" y="630.0" type="line" smooth="yes"/>
      <point x="460.0" y="647.0"/>
      <point x="473" y="660"/>
      <point x="490.0" y="660.0" type="curve" smooth="yes"/>
      <point x="510.0" y="660.0" type="line" smooth="yes"/>
      <point x="527.0" y="660.0"/>
      <point x="540.0" y="647.0"/>
      <point x="540.0" y="630.0" type="curve" smooth="yes"/>
      <point x="540.0" y="-30.0" type="line" smooth="yes"/>
      <point x="540.0" y="-47.0"/>
      <point x="527.0" y="-60.0"/>
    </contour>
    <contour>
      <point x="860.0" y="310.0" type="curve" smooth="yes"/>
      <point x="860.0" y="290.0" type="line" smooth="yes"/>
      <point x="860.0" y="273.0"/>
      <point x="847.0" y="260.0"/>
      <point x="830.0" y="260.0" type="curve" smooth="yes"/>
      <point x="170.0" y="260.0" type="line" smooth="yes"/>
      <point x="153.0" y="260.0"/>
      <point x="140.0" y="273.0"/>
      <point x="140.0" y="290.0" type="curve" smooth="yes"/>
      <point x="140.0" y="310.0" type="line" smooth="yes"/>
      <point x="140.0" y="327.0"/>
      <point x="153.0" y="340.0"/>
      <point x="170.0" y="340.0" type="curve" smooth="yes"/>
      <point x="830.0" y="340.0" type="line" smooth="yes"/>
      <point x="847.0" y="340.0"/>
      <point x="860.0" y="327.0"/>
    </contour>
  </outline>
</glyph>
<glyph name="pointer" format="2">
  <advance width="1000"/>
  <outline>
    <contour>
      <point x="315.0" y="52.0"/>
      <point x="327.0" y="53.0"/>
      <point x="336" y="62" type="curve" smooth="yes"/>
      <point x="451" y="176" type="line"/>
      <point x="543" y="-47" type="line" smooth="yes"/>
      <point x="555.9166666666666" y="-76.70833333333334"/>
      <point x="592" y="-91"/>
      <point x="622" y="-79" type="curve" smooth="yes"/>
      <point x="651" y="-67"/>
      <point x="667" y="-32"/>
      <point x="654" y="-1" type="curve" smooth="yes"/>
      <point x="562" y="222" type="line"/>
      <point x="723" y="222" type="line" smooth="yes"/>
      <point x="735" y="222"/>
      <point x="746" y="230"/>
      <point x="751" y="241" type="curve" smooth="yes"/>
      <point x="756" y="252"/>
      <point x="753" y="265"/>
      <point x="744" y="274" type="curve" smooth="yes"/>
      <point x="336" y="682" type="line" smooth="yes"/>
      <point x="328" y="691"/>
      <point x="315" y="693"/>
      <point x="304" y="688" type="curve" smooth="yes"/>
      <point x="292" y="684"/>
      <point x="285" y="673"/>
      <point x="285" y="661" type="curve" smooth="yes"/>
      <point x="285" y="83" type="line" smooth="yes"/>
      <point x="285" y="71"/>
      <point x="291" y="61"/>
      <point x="304" y="56" type="curve" smooth="yes"/>
    </contour>
  </outline>
</glyph>
<glyph name="pointeradd" format="2">
  <advance width="1000"/>
  <outline>
    <contour>
      <point x="779" y="474" type="line"/>
      <point x="640" y="613" type="line"/>
      <point x="594" y="568" type="line"/>
      <point x="733" y="429" type="line"/>
    </contour>
    <contour>
      <point x="814" y="693" type="line" smooth="yes"/>
      <point x="777" y="730"/>
      <point x="721" y="732"/>
      <point x="679" y="690" type="curve" smooth="yes"/>
      <point x="161" y="172" type="line" smooth="yes"/>
      <point x="148" y="159"/>
      <point x="143" y="148"/>
      <point x="141" y="137" type="curve" smooth="yes"/>
      <point x="114" y="-16" type="line" smooth="yes"/>
      <point x="110" y="-40"/>
      <point x="122" y="-61"/>
      <point x="153" y="-56" type="curve" smooth="yes"/>
      <point x="308" y="-30" type="line" smooth="yes"/>
      <point x="319" y="-28"/>
      <point x="330" y="-23"/>
      <point x="343" y="-10" type="curve" smooth="yes"/>
      <point x="861" y="507" type="line" smooth="yes"/>
      <point x="908" y="553"/>
      <point x="904" y="603"/>
      <point x="864" y="643" type="curve" smooth="yes"/>
    </contour>
    <contour>
      <point x="820" y="599" type="line" smooth="yes"/>
      <point x="834" y="585"/>
      <point x="835" y="572"/>
      <point x="815" y="552" type="curve" smooth="yes"/>
      <point x="300" y="36" type="line"/>
      <point x="176" y="10" type="line"/>
      <point x="204" y="128" type="line"/>
      <point x="722" y="645" type="line" smooth="yes"/>
      <point x="739" y="662"/>
      <point x="755" y="664"/>
      <point x="770" y="649" type="curve" smooth="yes"/>
    </contour>
  </outline>
</glyph>
<glyph name="pointeraddquad" format="2">
  <advance width="1000"/>
  <guideline x="733" y="716" angle="0" identifier="XnMEs19SPm"/>
  <guideline x="738" y="367" angle="0" identifier="EAoN9IueUw"/>
  <outline>
    <contour>
      <point x="876" y="-54" type="line"/>
      <point x="889" y="-68"/>
      <point x="910" y="-69"/>
      <point x="922" y="-57" type="curve" smooth="yes"/>
      <point x="934" y="-45"/>
      <point x="934" y="-27"/>
      <point x="922" y="-15" type="curve"/>
      <point x="830" y="87" type="line"/>
      <point x="819" y="100"/>
      <point x="800" y="102"/>
      <point x="787" y="91" type="curve" smooth="yes"/>
      <point x="775" y="80"/>
      <point x="775" y="59"/>
      <point x="787" y="47" type="curve"/>
    </contour>
    <contour>
      <point x="925" y="105" type="curve" smooth="yes"/>
      <point x="925" y="192"/>
      <point x="874" y="265"/>
      <point x="787" y="265" type="curve" smooth="yes"/>
      <point x="700" y="265"/>
      <point x="649" y="192"/>
      <point x="649" y="105" type="curve" smooth="yes"/>
      <point x="649" y="16"/>
      <point x="700" y="-56"/>
      <point x="787" y="-56" type="curve" smooth="yes"/>
      <point x="874" y="-56"/>
      <point x="925" y="16"/>
    </contour>
    <contour>
      <point x="868" y="105" type="curve" smooth="yes"/>
      <point x="868" y="39"/>
      <point x="840" y="-1"/>
      <point x="787" y="-1" type="curve" smooth="yes"/>
      <point x="734" y="-1"/>
      <point x="707" y="49"/>
      <point x="707" y="105" type="curve" smooth="yes"/>
      <point x="707" y="160"/>
      <point x="734" y="210"/>
      <point x="787" y="210" type="curve" smooth="yes"/>
      <point x="840" y="210"/>
      <point x="868" y="160"/>
    </contour>
    <contour>
      <point x="779" y="474" type="line"/>
      <point x="640" y="613" type="line"/>
      <point x="594" y="568" type="line"/>
      <point x="733" y="429" type="line"/>
    </contour>
    <contour>
      <point x="814" y="693" type="line" smooth="yes"/>
      <point x="777" y="730"/>
      <point x="721" y="732"/>
      <point x="679" y="690" type="curve" smooth="yes"/>
      <point x="161" y="172" type="line" smooth="yes"/>
      <point x="148" y="159"/>
      <point x="143" y="148"/>
      <point x="141" y="137" type="curve" smooth="yes"/>
      <point x="114" y="-16" type="line" smooth="yes"/>
      <point x="110" y="-40"/>
      <point x="122" y="-61"/>
      <point x="153" y="-56" type="curve" smooth="yes"/>
      <point x="308" y="-30" type="line" smooth="yes"/>
      <point x="319" y="-28"/>
      <point x="330" y="-23"/>
      <point x="343" y="-10" type="curve" smooth="yes"/>
      <point x="861" y="507" type="line" smooth="yes"/>
      <point x="908" y="553"/>
      <point x="904" y="603"/>
      <point x="864" y="643" type="curve" smooth="yes"/>
    </contour>
    <contour>
      <point x="820" y="599" type="line" smooth="yes"/>
      <point x="834" y="585"/>
      <point x="835" y="572"/>
      <point x="815" y="552" type="curve" smooth="yes"/>
      <point x="300" y="36" type="line"/>
      <point x="176" y="10" type="line"/>
      <point x="204" y="128" type="line"/>
      <point x="722" y="645" type="line" smooth="yes"/>
      <point x="739" y="662"/>
      <point x="755" y="664"/>
      <point x="770" y="649" type="curve" smooth="yes"/>
    </contour>
  </outline>
</glyph>
<glyph name="pointerscale" format="2">
  <advance width="1000"/>
  <guideline x="857" y="500" angle="90" identifier="h6zVhlqYKu"/>
  <guideline x="320" y="680" angle="0" identifier="fM9U3RNcIq"/>
  <guideline x="581" y="-77" angle="0" identifier="xIUWeV7Fve"/>
  <outline>
    <contour>
      <point x="531" y="14"/>
      <point x="541" y="16"/>
      <point x="547" y="23" type="curve" smooth="yes"/>
      <point x="635" y="111" type="line"/>
      <point x="696" y="-37" type="line" smooth="yes"/>
      <point x="705" y="-60"/>
      <point x="732" y="-72"/>
      <point x="756" y="-62" type="curve" smooth="yes"/>
      <point x="778" y="-53"/>
      <point x="789" y="-26"/>
      <point x="780" y="-2" type="curve" smooth="yes"/>
      <point x="720" y="147" type="line"/>
      <point x="842" y="147" type="line" smooth="yes"/>
      <point x="851" y="147"/>
      <point x="860" y="152"/>
      <point x="863" y="160" type="curve" smooth="yes"/>
      <point x="867" y="170"/>
      <point x="865" y="179"/>
      <point x="858" y="187" type="curve" smooth="yes"/>
      <point x="547" y="501" type="line" smooth="yes"/>
      <point x="541" y="507"/>
      <point x="531" y="509"/>
      <point x="521" y="505" type="curve" smooth="yes"/>
      <point x="513" y="501"/>
      <point x="508" y="494"/>
      <point x="508" y="484" type="curve" smooth="yes"/>
      <point x="508" y="39" type="line" smooth="yes"/>
      <point x="508" y="30"/>
      <point x="514" y="22"/>
      <point x="523" y="18" type="curve" smooth="yes"/>
    </contour>
    <contour>
      <point x="176" y="194" type="line"/>
      <point x="211" y="476"/>
      <point x="381" y="625"/>
      <point x="682" y="625" type="curve" smooth="yes"/>
      <point x="704" y="625"/>
      <point x="714" y="640"/>
      <point x="714" y="654" type="curve" smooth="yes"/>
      <point x="714" y="668"/>
      <point x="704" y="683"/>
      <point x="682" y="683" type="curve" smooth="yes"/>
      <point x="318" y="683"/>
      <point x="115" y="468"/>
      <point x="115" y="84" type="curve" smooth="yes"/>
      <point x="115" y="65"/>
      <point x="131" y="56"/>
      <point x="145" y="56" type="curve" smooth="yes"/>
      <point x="160" y="56"/>
      <point x="175" y="65"/>
      <point x="175" y="84" type="curve" smooth="yes"/>
      <point x="175" y="251"/>
      <point x="287" y="352"/>
      <point x="426" y="352" type="curve" smooth="yes"/>
      <point x="448" y="352"/>
      <point x="458" y="366"/>
      <point x="458" y="381" type="curve" smooth="yes"/>
      <point x="458" y="396"/>
      <point x="448" y="410"/>
      <point x="426" y="410" type="curve" smooth="yes"/>
      <point x="299" y="410"/>
      <point x="190" y="330"/>
      <point x="150" y="199" type="curve"/>
    </contour>
  </outline>
</glyph>
<glyph name="rectangletool" format="2">
  <advance width="1000"/>
  <outline>
    <contour>
      <point x="141" y="621" type="line" smooth="yes"/>
      <point x="141" y="643"/>
      <point x="157" y="658"/>
      <point x="177" y="658" type="curve" smooth="yes"/>
      <point x="816" y="658" type="line" smooth="yes"/>
      <point x="835" y="658"/>
      <point x="852" y="643"/>
      <point x="852" y="621" type="curve" smooth="yes"/>
      <point x="852" y="227" type="line" smooth="yes"/>
      <point x="852" y="203"/>
      <point x="836" y="192"/>
      <point x="820" y="192" type="curve" smooth="yes"/>
      <point x="804" y="192"/>
      <point x="787" y="203"/>
      <point x="787" y="227" type="curve" smooth="yes"/>
      <point x="787" y="595" type="line"/>
      <point x="206" y="595" type="line"/>
      <point x="206" y="8" type="line"/>
      <point x="572" y="8" type="line" smooth="yes"/>
      <point x="595" y="8"/>
      <point x="606" y="-7"/>
      <point x="606" y="-23" type="curve" smooth="yes"/>
      <point x="606" y="-39"/>
      <point x="595" y="-55"/>
      <point x="572" y="-55" type="curve" smooth="yes"/>
      <point x="178" y="-55" type="line"/>
      <point x="177.99964904785156" y="-54.97780990600586" type="line"/>
      <point x="177.66702270507812" y="-54.99257278442383"/>
      <point x="177.33375549316406" y="-55"/>
      <point x="177" y="-55" type="curve" smooth="yes"/>
      <point x="157" y="-55"/>
      <point x="141" y="-40"/>
      <point x="141" y="-18" type="curve" smooth="yes"/>
    </contour>
    <contour>
      <point x="852" y="-137" type="line" smooth="yes"/>
      <point x="852" y="-161"/>
      <point x="836" y="-172"/>
      <point x="820" y="-172" type="curve" smooth="yes"/>
      <point x="804" y="-172"/>
      <point x="787" y="-161"/>
      <point x="787" y="-137" type="curve" smooth="yes"/>
      <point x="787" y="-55" type="line"/>
      <point x="709" y="-55" type="line" smooth="yes"/>
      <point x="686" y="-55"/>
      <point x="675" y="-39"/>
      <point x="675" y="-23" type="curve" smooth="yes"/>
      <point x="675" y="-7"/>
      <point x="686" y="8"/>
      <point x="709" y="8" type="curve" smooth="yes"/>
      <point x="787" y="8" type="line"/>
      <point x="787" y="90" type="line" smooth="yes"/>
      <point x="787" y="114"/>
      <point x="804" y="125"/>
      <point x="819" y="125" type="curve" smooth="yes"/>
      <point x="836" y="125"/>
      <point x="852" y="114"/>
      <point x="852" y="90" type="curve" smooth="yes"/>
      <point x="852" y="8" type="line"/>
      <point x="930" y="8" type="line" smooth="yes"/>
      <point x="953" y="8"/>
      <point x="964" y="-7"/>
      <point x="964" y="-23" type="curve" smooth="yes"/>
      <point x="964" y="-39"/>
      <point x="953" y="-55"/>
      <point x="930" y="-55" type="curve" smooth="yes"/>
      <point x="852" y="-55" type="line"/>
    </contour>
  </outline>
</glyph>
<glyph name="reference" format="2">
  <advance width="1000"/>
  <outline>
    <contour>
      <point x="560" y="696" type="curve" smooth="yes"/>
      <point x="362" y="696" type="line" smooth="yes"/>
      <point x="345" y="696"/>
      <point x="332" y="683"/>
      <point x="332" y="666" type="curve" smooth="yes"/>
      <point x="332" y="6" type="line" smooth="yes"/>
      <point x="332" y="-11"/>
      <point x="345" y="-24"/>
      <point x="362" y="-24" type="curve" smooth="yes"/>
      <point x="383" y="-24" type="line" smooth="yes"/>
      <point x="400" y="-24"/>
      <point x="412" y="-11"/>
      <point x="412" y="6" type="curve" smooth="yes"/>
      <point x="412" y="253" type="line"/>
      <point x="570" y="253" type="line"/>
      <point x="706" y="-6" type="line" smooth="yes"/>
      <point x="712" y="-17"/>
      <point x="721" y="-24"/>
      <point x="733" y="-24" type="curve" smooth="yes"/>
      <point x="754" y="-24" type="line" smooth="yes"/>
      <point x="770" y="-24"/>
      <point x="786" y="-15"/>
      <point x="786" y="2" type="curve" smooth="yes"/>
      <point x="786" y="18"/>
      <point x="783" y="23"/>
      <point x="779" y="31" type="curve" smooth="yes"/>
      <point x="648" y="267" type="line"/>
      <point x="746" y="295"/>
      <point x="795" y="375"/>
      <point x="795" y="493" type="curve" smooth="yes"/>
      <point x="795" y="639"/>
      <point x="698" y="696"/>
    </contour>
    <contour>
      <point x="469" y="-55" type="curve"/>
      <point x="449" y="-55" type="line"/>
      <point x="449" y="-66"/>
      <point x="440" y="-75"/>
      <point x="429" y="-75" type="curve" smooth="yes"/>
      <point x="179" y="-75" type="line" smooth="yes"/>
      <point x="168" y="-75"/>
      <point x="159" y="-66"/>
      <point x="159" y="-55" type="curve" smooth="yes"/>
      <point x="159" y="-44"/>
      <point x="168" y="-35"/>
      <point x="179" y="-35" type="curve" smooth="yes"/>
      <point x="264" y="-35" type="line" smooth="yes"/>
      <point x="270" y="-35"/>
      <point x="274" y="-31"/>
      <point x="274" y="-25" type="curve" smooth="yes"/>
      <point x="274" y="575" type="line" smooth="yes"/>
      <point x="274" y="581"/>
      <point x="270" y="585"/>
      <point x="264" y="585" type="curve" smooth="yes"/>
      <point x="179" y="585" type="line" smooth="yes"/>
      <point x="168" y="585"/>
      <point x="159" y="594"/>
      <point x="159" y="605" type="curve" smooth="yes"/>
      <point x="159" y="616"/>
      <point x="168" y="625"/>
      <point x="179" y="625" type="curve" smooth="yes"/>
      <point x="292" y="625" type="line"/>
      <point x="292" y="645" type="line"/>
      <point x="179" y="645" type="line" smooth="yes"/>
      <point x="157" y="645"/>
      <point x="139" y="627"/>
      <point x="139" y="605" type="curve" smooth="yes"/>
      <point x="139" y="583"/>
      <point x="157" y="565"/>
      <point x="179" y="565" type="curve" smooth="yes"/>
      <point x="254" y="565" type="line"/>
      <point x="254" y="-15" type="line"/>
      <point x="179" y="-15" type="line" smooth="yes"/>
      <point x="157" y="-15"/>
      <point x="139" y="-33"/>
      <point x="139" y="-55" type="curve" smooth="yes"/>
      <point x="139" y="-77"/>
      <point x="157" y="-95"/>
      <point x="179" y="-95" type="curve" smooth="yes"/>
      <point x="429" y="-95" type="line" smooth="yes"/>
      <point x="451" y="-95"/>
      <point x="469" y="-77"/>
    </contour>
    <contour>
      <point x="412" y="313" type="line"/>
      <point x="412" y="636" type="line"/>
      <point x="554" y="636" type="line" smooth="yes"/>
      <point x="664" y="636"/>
      <point x="711" y="594"/>
      <point x="711" y="484" type="curve" smooth="yes"/>
      <point x="711" y="370"/>
      <point x="659" y="313"/>
      <point x="562" y="313" type="curve" smooth="yes"/>
    </contour>
    <contour>
      <point x="647" y="-62" type="curve" smooth="yes"/>
      <point x="511" y="197" type="line" smooth="yes"/>
      <point x="509" y="200"/>
      <point x="506" y="202"/>
      <point x="502" y="202" type="curve" smooth="yes"/>
      <point x="452" y="202" type="line"/>
      <point x="452" y="182" type="line"/>
      <point x="496" y="182" type="line"/>
      <point x="629" y="-72" type="line" smooth="yes"/>
      <point x="637" y="-87"/>
      <point x="650" y="-95"/>
      <point x="665" y="-95" type="curve" smooth="yes"/>
      <point x="824" y="-95" type="line" smooth="yes"/>
      <point x="846" y="-95"/>
      <point x="864" y="-77"/>
      <point x="864" y="-55" type="curve"/>
      <point x="844" y="-55" type="line"/>
      <point x="844" y="-66"/>
      <point x="835" y="-75"/>
      <point x="824" y="-75" type="curve" smooth="yes"/>
      <point x="665" y="-75" type="line" smooth="yes"/>
      <point x="662" y="-75"/>
      <point x="654" y="-75"/>
    </contour>
    <contour>
      <point x="699" y="-30" type="line" smooth="yes"/>
      <point x="700" y="-32"/>
      <point x="702" y="-34"/>
      <point x="705" y="-35" type="curve"/>
      <point x="702" y="-33"/>
      <point x="700" y="-31"/>
      <point x="698" y="-28" type="curve"/>
    </contour>
    <contour>
      <point x="653" y="423" type="curve" smooth="yes"/>
      <point x="653" y="482"/>
      <point x="640" y="521"/>
      <point x="613" y="547" type="curve" smooth="yes"/>
      <point x="586" y="573"/>
      <point x="545" y="585"/>
      <point x="486" y="585" type="curve" smooth="yes"/>
      <point x="452" y="585" type="line"/>
      <point x="452" y="565" type="line"/>
      <point x="486" y="565" type="line" smooth="yes"/>
      <point x="540" y="565"/>
      <point x="576" y="555"/>
      <point x="599" y="533" type="curve" smooth="yes"/>
      <point x="622" y="511"/>
      <point x="633" y="476"/>
      <point x="633" y="423" type="curve" smooth="yes"/>
      <point x="633" y="413"/>
      <point x="633" y="403"/>
      <point x="632" y="394" type="curve"/>
      <point x="653" y="411" type="line"/>
      <point x="653" y="415"/>
      <point x="653" y="419"/>
    </contour>
  </outline>
</glyph>
<glyph name="sidebearingtool" format="2">
  <advance width="1000"/>
  <outline>
    <contour>
      <point x="300" y="582" type="line"/>
      <point x="300" y="604"/>
      <point x="316" y="619"/>
      <point x="336" y="619" type="curve" smooth="yes"/>
      <point x="355" y="619"/>
      <point x="373" y="604"/>
      <point x="373" y="582" type="curve"/>
      <point x="373" y="21" type="line"/>
      <point x="373" y="-1"/>
      <point x="355" y="-16"/>
      <point x="336" y="-16" type="curve" smooth="yes"/>
      <point x="316" y="-16"/>
      <point x="300" y="-1"/>
      <point x="300" y="21" type="curve"/>
    </contour>
    <contour>
      <point x="627" y="582" type="line"/>
      <point x="627" y="604"/>
      <point x="645" y="619"/>
      <point x="664" y="619" type="curve" smooth="yes"/>
      <point x="683" y="619"/>
      <point x="700" y="604"/>
      <point x="700" y="582" type="curve"/>
      <point x="700" y="21" type="line"/>
      <point x="700" y="-1"/>
      <point x="683" y="-16"/>
      <point x="664" y="-16" type="curve" smooth="yes"/>
      <point x="645" y="-16"/>
      <point x="627" y="-1"/>
      <point x="627" y="21" type="curve"/>
    </contour>
    <contour>
      <point x="337" y="278" type="line"/>
      <point x="336" y="338" type="line"/>
      <point x="664" y="338" type="line"/>
      <point x="664" y="278" type="line"/>
    </contour>
    <contour>
      <point x="114" y="674" type="line"/>
      <point x="114" y="690"/>
      <point x="125" y="701"/>
      <point x="140" y="701" type="curve" smooth="yes"/>
      <point x="156" y="701"/>
      <point x="167" y="690"/>
      <point x="167" y="674" type="curve"/>
      <point x="167" y="590" type="line"/>
      <point x="167" y="574"/>
      <point x="156" y="563"/>
      <point x="140" y="563" type="curve" smooth="yes"/>
      <point x="125" y="563"/>
      <point x="114" y="574"/>
      <point x="114" y="590" type="curve"/>
    </contour>
    <contour>
      <point x="114" y="458" type="line"/>
      <point x="114" y="473"/>
      <point x="125" y="484"/>
      <point x="140" y="484" type="curve" smooth="yes"/>
      <point x="156" y="484"/>
      <point x="167" y="473"/>
      <point x="167" y="458" type="curve"/>
      <point x="167" y="373" type="line"/>
      <point x="167" y="358"/>
      <point x="156" y="347"/>
      <point x="140" y="347" type="curve" smooth="yes"/>
      <point x="125" y="347"/>
      <point x="114" y="358"/>
      <point x="114" y="373" type="curve"/>
    </contour>
    <contour>
      <point x="114" y="241" type="line"/>
      <point x="114" y="256"/>
      <point x="125" y="267"/>
      <point x="140" y="267" type="curve" smooth="yes"/>
      <point x="156" y="267"/>
      <point x="167" y="256"/>
      <point x="167" y="241" type="curve"/>
      <point x="167" y="156" type="line"/>
      <point x="167" y="141"/>
      <point x="156" y="130"/>
      <point x="140" y="130" type="curve" smooth="yes"/>
      <point x="125" y="130"/>
      <point x="114" y="141"/>
      <point x="114" y="156" type="curve"/>
    </contour>
    <contour>
      <point x="114" y="24" type="line"/>
      <point x="114" y="40"/>
      <point x="125" y="51"/>
      <point x="140" y="51" type="curve" smooth="yes"/>
      <point x="156" y="51"/>
      <point x="167" y="40"/>
      <point x="167" y="24" type="curve"/>
      <point x="167" y="-60" type="line"/>
      <point x="167" y="-76"/>
      <point x="156" y="-87"/>
      <point x="140" y="-87" type="curve" smooth="yes"/>
      <point x="125" y="-87"/>
      <point x="114" y="-76"/>
      <point x="114" y="-60" type="curve"/>
    </contour>
    <contour>
      <point x="833" y="674" type="line"/>
      <point x="833" y="690"/>
      <point x="844" y="701"/>
      <point x="860" y="701" type="curve" smooth="yes"/>
      <point x="875" y="701"/>
      <point x="886" y="690"/>
      <point x="886" y="674" type="curve"/>
      <point x="886" y="590" type="line"/>
      <point x="886" y="574"/>
      <point x="875" y="563"/>
      <point x="860" y="563" type="curve" smooth="yes"/>
      <point x="844" y="563"/>
      <point x="833" y="574"/>
      <point x="833" y="590" type="curve"/>
    </contour>
    <contour>
      <point x="833" y="458" type="line"/>
      <point x="833" y="473"/>
      <point x="844" y="484"/>
      <point x="860" y="484" type="curve" smooth="yes"/>
      <point x="875" y="484"/>
      <point x="886" y="473"/>
      <point x="886" y="458" type="curve"/>
      <point x="886" y="373" type="line"/>
      <point x="886" y="358"/>
      <point x="875" y="347"/>
      <point x="860" y="347" type="curve" smooth="yes"/>
      <point x="844" y="347"/>
      <point x="833" y="358"/>
      <point x="833" y="373" type="curve"/>
    </contour>
    <contour>
      <point x="833" y="241" type="line"/>
      <point x="833" y="256"/>
      <point x="844" y="267"/>
      <point x="860" y="267" type="curve" smooth="yes"/>
      <point x="875" y="267"/>
      <point x="886" y="256"/>
      <point x="886" y="241" type="curve"/>
      <point x="886" y="156" type="line"/>
      <point x="886" y="141"/>
      <point x="875" y="130"/>
      <point x="860" y="130" type="curve" smooth="yes"/>
      <point x="844" y="130"/>
      <point x="833" y="141"/>
      <point x="833" y="156" type="curve"/>
    </contour>
    <contour>
      <point x="833" y="24" type="line"/>
      <point x="833" y="40"/>
      <point x="844" y="51"/>
      <point x="860" y="51" type="curve" smooth="yes"/>
      <point x="875" y="51"/>
      <point x="886" y="40"/>
      <point x="886" y="24" type="curve"/>
      <point x="886" y="-60" type="line"/>
      <point x="886" y="-76"/>
      <point x="875" y="-87"/>
      <point x="860" y="-87" type="curve" smooth="yes"/>
      <point x="844" y="-87"/>
      <point x="833" y="-76"/>
      <point x="833" y="-60" type="curve"/>
    </contour>
  </outline>
</glyph>
<glyph name="skew" format="2">
  <advance width="1000"/>
  <outline>
    <contour>
      <point x="121" y="135" type="curve" smooth="yes"/>
      <point x="121" y="100" type="line" smooth="yes"/>
      <point x="121" y="83"/>
      <point x="136" y="69"/>
      <point x="153" y="69" type="curve" smooth="yes"/>
      <point x="171" y="69"/>
      <point x="185" y="83"/>
      <point x="185" y="100" type="curve" smooth="yes"/>
      <point x="185" y="135" type="line" smooth="yes"/>
      <point x="185" y="152"/>
      <point x="171" y="165"/>
      <point x="153" y="165" type="curve" smooth="yes"/>
      <point x="136" y="165"/>
      <point x="121" y="152"/>
    </contour>
    <contour>
      <point x="121" y="474" type="curve" smooth="yes"/>
      <point x="121" y="439" type="line" smooth="yes"/>
      <point x="121" y="424"/>
      <point x="136" y="410"/>
      <point x="153" y="410" type="curve" smooth="yes"/>
      <point x="171" y="410"/>
      <point x="185" y="424"/>
      <point x="185" y="439" type="curve" smooth="yes"/>
      <point x="185" y="474" type="line" smooth="yes"/>
      <point x="185" y="492"/>
      <point x="171" y="506"/>
      <point x="153" y="506" type="curve" smooth="yes"/>
      <point x="136" y="506"/>
      <point x="121" y="492"/>
    </contour>
    <contour>
      <point x="153" y="593" type="curve" smooth="yes"/>
      <point x="205" y="593" type="line" smooth="yes"/>
      <point x="222" y="593"/>
      <point x="236" y="607"/>
      <point x="236" y="623" type="curve" smooth="yes"/>
      <point x="236" y="641"/>
      <point x="222" y="655"/>
      <point x="205" y="655" type="curve" smooth="yes"/>
      <point x="153" y="655" type="line" smooth="yes"/>
      <point x="135" y="655"/>
      <point x="121" y="641"/>
      <point x="121" y="623" type="curve" smooth="yes"/>
      <point x="121" y="607"/>
      <point x="135" y="593"/>
    </contour>
    <contour>
      <point x="121" y="302" type="curve" smooth="yes"/>
      <point x="121" y="267" type="line" smooth="yes"/>
      <point x="121" y="250"/>
      <point x="136" y="238"/>
      <point x="153" y="238" type="curve" smooth="yes"/>
      <point x="171" y="238"/>
      <point x="185" y="250"/>
      <point x="185" y="267" type="curve" smooth="yes"/>
      <point x="185" y="302" type="line" smooth="yes"/>
      <point x="185" y="321"/>
      <point x="171" y="334"/>
      <point x="153" y="334" type="curve" smooth="yes"/>
      <point x="136" y="334"/>
      <point x="121" y="321"/>
    </contour>
    <contour>
      <point x="689" y="135" type="curve" smooth="yes"/>
      <point x="689" y="100" type="line" smooth="yes"/>
      <point x="689" y="83"/>
      <point x="703" y="69"/>
      <point x="720" y="69" type="curve" smooth="yes"/>
      <point x="738" y="69"/>
      <point x="752" y="83"/>
      <point x="752" y="100" type="curve" smooth="yes"/>
      <point x="752" y="135" type="line" smooth="yes"/>
      <point x="752" y="152"/>
      <point x="738" y="165"/>
      <point x="720" y="165" type="curve" smooth="yes"/>
      <point x="703" y="165"/>
      <point x="689" y="152"/>
    </contour>
    <contour>
      <point x="689" y="474" type="curve" smooth="yes"/>
      <point x="689" y="439" type="line" smooth="yes"/>
      <point x="689" y="424"/>
      <point x="703" y="410"/>
      <point x="720" y="410" type="curve" smooth="yes"/>
      <point x="738" y="410"/>
      <point x="752" y="424"/>
      <point x="752" y="439" type="curve" smooth="yes"/>
      <point x="752" y="474" type="line" smooth="yes"/>
      <point x="752" y="492"/>
      <point x="738" y="506"/>
      <point x="720" y="506" type="curve" smooth="yes"/>
      <point x="703" y="506"/>
      <point x="689" y="492"/>
    </contour>
    <contour>
      <point x="689" y="302" type="curve" smooth="yes"/>
      <point x="689" y="267" type="line" smooth="yes"/>
      <point x="689" y="250"/>
      <point x="703" y="238"/>
      <point x="720" y="238" type="curve" smooth="yes"/>
      <point x="738" y="238"/>
      <point x="752" y="250"/>
      <point x="752" y="267" type="curve" smooth="yes"/>
      <point x="752" y="302" type="line" smooth="yes"/>
      <point x="752" y="321"/>
      <point x="738" y="334"/>
      <point x="720" y="334" type="curve" smooth="yes"/>
      <point x="703" y="334"/>
      <point x="689" y="321"/>
    </contour>
    <contour>
      <point x="121" y="624" type="curve" smooth="yes"/>
      <point x="121" y="590" type="line" smooth="yes"/>
      <point x="121" y="573"/>
      <point x="136" y="559"/>
      <point x="153" y="559" type="curve" smooth="yes"/>
      <point x="171" y="559"/>
      <point x="185" y="573"/>
      <point x="185" y="590" type="curve" smooth="yes"/>
      <point x="185" y="624" type="line" smooth="yes"/>
      <point x="185" y="642"/>
      <point x="171" y="655"/>
      <point x="153" y="655" type="curve" smooth="yes"/>
      <point x="136" y="655"/>
      <point x="121" y="642"/>
    </contour>
    <contour>
      <point x="686" y="624" type="line"/>
      <point x="686" y="590" type="line" smooth="yes"/>
      <point x="686" y="573"/>
      <point x="700" y="559"/>
      <point x="717" y="559" type="curve" smooth="yes"/>
      <point x="735" y="559"/>
      <point x="749" y="573"/>
      <point x="749" y="590" type="curve" smooth="yes"/>
      <point x="749" y="624" type="line"/>
    </contour>
    <contour>
      <point x="936" y="619" type="line" smooth="yes"/>
      <point x="942" y="638"/>
      <point x="930" y="655"/>
      <point x="910" y="655" type="curve" smooth="yes"/>
      <point x="349" y="655" type="line" smooth="yes"/>
      <point x="331" y="655"/>
      <point x="311" y="639"/>
      <point x="306" y="619" type="curve" smooth="yes"/>
      <point x="131" y="-22" type="line" smooth="yes"/>
      <point x="123" y="-50"/>
      <point x="139" y="-71"/>
      <point x="167" y="-71" type="curve" smooth="yes"/>
      <point x="717" y="-71" type="line" smooth="yes"/>
      <point x="739" y="-71"/>
      <point x="760" y="-50"/>
      <point x="766" y="-22" type="curve" smooth="yes"/>
    </contour>
    <contour>
      <point x="199" y="-9" type="line"/>
      <point x="364" y="593" type="line"/>
      <point x="864" y="593" type="line"/>
      <point x="705" y="-9" type="line"/>
    </contour>
  </outline>
</glyph>
<glyph name="sliders" format="2">
  <advance width="1000"/>
  <outline>
    <contour>
      <point x="485" y="520" type="curve" smooth="yes"/>
      <point x="517" y="520"/>
      <point x="550" y="541"/>
      <point x="559" y="570" type="curve"/>
      <point x="860" y="570" type="line" smooth="yes"/>
      <point x="877" y="570"/>
      <point x="890" y="583"/>
      <point x="890" y="600" type="curve" smooth="yes"/>
      <point x="890" y="617"/>
      <point x="877" y="630"/>
      <point x="860" y="630" type="curve" smooth="yes"/>
      <point x="560" y="630" type="line"/>
      <point x="548" y="659"/>
      <point x="517" y="680"/>
      <point x="485" y="680" type="curve" smooth="yes"/>
      <point x="451" y="680"/>
      <point x="420" y="659"/>
      <point x="411" y="630" type="curve"/>
      <point x="140" y="630" type="line" smooth="yes"/>
      <point x="123" y="630"/>
      <point x="110" y="617"/>
      <point x="110" y="600" type="curve" smooth="yes"/>
      <point x="110" y="583"/>
      <point x="123" y="570"/>
      <point x="140" y="570" type="curve" smooth="yes"/>
      <point x="410" y="570" type="line"/>
      <point x="422" y="541"/>
      <point x="453" y="520"/>
    </contour>
    <contour>
      <point x="597" y="320" type="curve" smooth="yes"/>
      <point x="631" y="320"/>
      <point x="662" y="341"/>
      <point x="671" y="370" type="curve"/>
      <point x="860" y="370" type="line" smooth="yes"/>
      <point x="877" y="370"/>
      <point x="890" y="383"/>
      <point x="890" y="400" type="curve" smooth="yes"/>
      <point x="890" y="417"/>
      <point x="877" y="430"/>
      <point x="860" y="430" type="curve" smooth="yes"/>
      <point x="672" y="430" type="line"/>
      <point x="660" y="459"/>
      <point x="630" y="480"/>
      <point x="597" y="480" type="curve" smooth="yes"/>
      <point x="563" y="480"/>
      <point x="532" y="459"/>
      <point x="523" y="430" type="curve"/>
      <point x="140" y="430" type="line" smooth="yes"/>
      <point x="123" y="430"/>
      <point x="110" y="417"/>
      <point x="110" y="400" type="curve" smooth="yes"/>
      <point x="110" y="383"/>
      <point x="123" y="370"/>
      <point x="140" y="370" type="curve" smooth="yes"/>
      <point x="522" y="370" type="line"/>
      <point x="534" y="341"/>
      <point x="565" y="320"/>
    </contour>
    <contour>
      <point x="637" y="120" type="curve" smooth="yes"/>
      <point x="668" y="120"/>
      <point x="700" y="141"/>
      <point x="711" y="170" type="curve"/>
      <point x="860" y="170" type="line" smooth="yes"/>
      <point x="877" y="170"/>
      <point x="890" y="183"/>
      <point x="890" y="200" type="curve" smooth="yes"/>
      <point x="890" y="217"/>
      <point x="877" y="230"/>
      <point x="860" y="230" type="curve" smooth="yes"/>
      <point x="710" y="230" type="line"/>
      <point x="698" y="259"/>
      <point x="667" y="279"/>
      <point x="637" y="279" type="curve" smooth="yes"/>
      <point x="606" y="279"/>
      <point x="575" y="260"/>
      <point x="563" y="230" type="curve"/>
      <point x="140" y="230" type="line" smooth="yes"/>
      <point x="123" y="230"/>
      <point x="110" y="217"/>
      <point x="110" y="200" type="curve" smooth="yes"/>
      <point x="110" y="183"/>
      <point x="123" y="170"/>
      <point x="140" y="170" type="curve" smooth="yes"/>
      <point x="562" y="170" type="line"/>
      <point x="574" y="141"/>
      <point x="607" y="120"/>
    </contour>
    <contour>
      <point x="259" y="-80" type="curve" smooth="yes"/>
      <point x="290" y="-80"/>
      <point x="322" y="-59"/>
      <point x="333" y="-30" type="curve"/>
      <point x="860" y="-30" type="line" smooth="yes"/>
      <point x="877" y="-30"/>
      <point x="890" y="-17"/>
      <point x="890" y="0" type="curve" smooth="yes"/>
      <point x="890" y="17"/>
      <point x="877" y="30"/>
      <point x="860" y="30" type="curve" smooth="yes"/>
      <point x="332" y="30" type="line"/>
      <point x="320.2459687903646" y="59.38507802408853"/>
      <point x="289.3172140835066" y="79.0"/>
      <point x="259" y="79" type="curve" smooth="yes"/>
      <point x="227.5" y="79.0"/>
      <point x="197.0" y="60.0"/>
      <point x="185" y="30" type="curve"/>
      <point x="140" y="30" type="line" smooth="yes"/>
      <point x="123" y="30"/>
      <point x="110" y="17"/>
      <point x="110" y="0" type="curve" smooth="yes"/>
      <point x="110" y="-17"/>
      <point x="123" y="-30"/>
      <point x="140" y="-30" type="curve" smooth="yes"/>
      <point x="184" y="-30" type="line"/>
      <point x="196" y="-59"/>
      <point x="229" y="-80"/>
    </contour>
  </outline>
</glyph>
<glyph name="texttool" format="2">
  <advance width="1000"/>
  <outline>
    <contour>
      <point x="645.0" y="-60.0" type="curve" smooth="yes"/>
      <point x="355.0" y="-60.0" type="line" smooth="yes"/>
      <point x="338.0" y="-60.0"/>
      <point x="325.0" y="-47.0"/>
      <point x="325.0" y="-30.0" type="curve" smooth="yes"/>
      <point x="325.0" y="-13.0"/>
      <point x="338.0" y="0.0"/>
      <point x="355.0" y="0.0" type="curve" smooth="yes"/>
      <point x="460.0" y="0.0" type="line"/>
      <point x="460.0" y="600.0" type="line"/>
      <point x="200.0" y="600.0" type="line"/>
      <point x="200.0" y="432.0" type="line" smooth="yes"/>
      <point x="200.0" y="415.0"/>
      <point x="187.0" y="402.0"/>
      <point x="170.0" y="402.0" type="curve" smooth="yes"/>
      <point x="153.0" y="402.0"/>
      <point x="140.0" y="415.0"/>
      <point x="140.0" y="432.0" type="curve" smooth="yes"/>
      <point x="140.0" y="630.0" type="line" smooth="yes"/>
      <point x="140.0" y="647.0"/>
      <point x="153.0" y="660.0"/>
      <point x="170.0" y="660.0" type="curve" smooth="yes"/>
      <point x="830.0" y="660.0" type="line" smooth="yes"/>
      <point x="847.0" y="660.0"/>
      <point x="860.0" y="647.0"/>
      <point x="860.0" y="630.0" type="curve" smooth="yes"/>
      <point x="860.0" y="432.0" type="line" smooth="yes"/>
      <point x="860.0" y="415.0"/>
      <point x="847.0" y="402.0"/>
      <point x="830.0" y="402.0" type="curve" smooth="yes"/>
      <point x="813.0" y="402.0"/>
      <point x="800.0" y="415.0"/>
      <point x="800.0" y="432.0" type="curve" smooth="yes"/>
      <point x="800.0" y="600.0" type="line"/>
      <point x="540.0" y="600.0" type="line"/>
      <point x="540.0" y="0.0" type="line"/>
      <point x="645.0" y="0.0" type="line" smooth="yes"/>
      <point x="662.0" y="0.0"/>
      <point x="675.0" y="-13.0"/>
      <point x="675.0" y="-30.0" type="curve" smooth="yes"/>
      <point x="675.0" y="-47.0"/>
      <point x="662.0" y="-60.0"/>
    </contour>
  </outline>
</glyph>
<glyph name="zoomin" format="2">
  <advance width="1000"/>
  <outline>
    <contour>
      <point x="380" y="640" type="curve" smooth="yes"/>
      <point x="501" y="640"/>
      <point x="600" y="541"/>
      <point x="600" y="420" type="curve" smooth="yes"/>
      <point x="600" y="299"/>
      <point x="501" y="200"/>
      <point x="380" y="200" type="curve" smooth="yes"/>
      <point x="259" y="200"/>
      <point x="160" y="299"/>
      <point x="160" y="420" type="curve" smooth="yes"/>
      <point x="160" y="541"/>
      <point x="259" y="640"/>
    </contour>
    <contour>
      <point x="840" y="-91" type="curve" smooth="yes"/>
      <point x="865.9354834727299" y="-91.0"/>
      <point x="890.0" y="-65.06483830745715"/>
      <point x="890" y="-39" type="curve" smooth="yes"/>
      <point x="890" y="-26"/>
      <point x="885" y="-13"/>
      <point x="875" y="-3" type="curve" smooth="yes"/>
      <point x="681" y="191" type="line" smooth="yes"/>
      <point x="669" y="203"/>
      <point x="652" y="208"/>
      <point x="637" y="205" type="curve"/>
      <point x="598" y="244" type="line"/>
      <point x="637" y="292"/>
      <point x="660" y="354"/>
      <point x="660" y="420" type="curve" smooth="yes"/>
      <point x="660" y="574"/>
      <point x="534" y="700"/>
      <point x="380" y="700" type="curve" smooth="yes"/>
      <point x="226" y="700"/>
      <point x="100" y="574"/>
      <point x="100" y="420" type="curve" smooth="yes"/>
      <point x="100" y="266"/>
      <point x="226" y="140"/>
      <point x="380" y="140" type="curve"/>
      <point x="446" y="140"/>
      <point x="508" y="163"/>
      <point x="556" y="202" type="curve"/>
      <point x="595" y="163" type="line"/>
      <point x="592" y="148"/>
      <point x="597" y="131"/>
      <point x="609" y="119" type="curve" smooth="yes"/>
      <point x="804" y="-76" type="line" smooth="yes"/>
      <point x="814" y="-86"/>
      <point x="827" y="-91"/>
    </contour>
    <contour>
      <point x="380" y="248" type="curve" smooth="yes"/>
      <point x="397" y="248"/>
      <point x="410" y="261"/>
      <point x="410" y="278" type="curve" smooth="yes"/>
      <point x="410" y="390" type="line"/>
      <point x="522" y="390" type="line" smooth="yes"/>
      <point x="539" y="390"/>
      <point x="552" y="403"/>
      <point x="552" y="420" type="curve" smooth="yes"/>
      <point x="552" y="437"/>
      <point x="539" y="450"/>
      <point x="522" y="450" type="curve" smooth="yes"/>
      <point x="410" y="450" type="line"/>
      <point x="410" y="562" type="line" smooth="yes"/>
      <point x="410" y="579"/>
      <point x="397" y="592"/>
      <point x="380" y="592" type="curve" smooth="yes"/>
      <point x="363" y="592"/>
      <point x="350" y="579"/>
      <point x="350" y="562" type="curve" smooth="yes"/>
      <point x="350" y="450" type="line"/>
      <point x="238" y="450" type="line" smooth="yes"/>
      <point x="221" y="450"/>
      <point x="208" y="437"/>
      <point x="208" y="420" type="curve" smooth="yes"/>
      <point x="208" y="403"/>
      <point x="221" y="390"/>
      <point x="238" y="390" type="curve" smooth="yes"/>
      <point x="350" y="390" type="line"/>
      <point x="350" y="278" type="line" smooth="yes"/>
      <point x="350" y="261"/>
      <point x="363" y="248"/>
    </contour>
  </outline>
</glyph>
